<?xml version="1.0" encoding="utf-8"?>
<!-- Generator: Adobe Illustrator 25.1.0, SVG Export Plug-In . SVG Version: 6.00 Build 0)  -->
<svg version="1.1" xmlns="http://www.w3.org/2000/svg" xmlns:xlink="http://www.w3.org/1999/xlink" x="0px" y="0px"
	 viewBox="0 0 425.6799927 182.2400055" enable-background="new 0 0 425.6799927 182.2400055" xml:space="preserve">
<g id="Layer_2">
</g>
<g id="Layer_1">
	<g>
		<path fill="#FFFFFF" d="M0.0816826,9.8483639l0.0603619-0.0893173l0.2064234-0.1811447
			c0,0,0.1249172-0.0626211,0.1917168-0.0778008C0.603736,9.4856606,0.674493,9.4739809,0.740643,9.4791937
			C0.8500857,9.4878016,0.9165902,9.5056095,1.014811,9.5502901c0.06048,0.027523,0.1159397,0.0698557,0.162481,0.1169434
			c0.0183094,0.0185308,0.0295904,0.0383759,0.0442969,0.057394c0.1963238,0.1507721,0.3065344,0.3918056,0.29484,0.6370487
			c0.0504985,0.0309782,0.1007607,0.0623255,0.151141,0.0935106C2.2833555,8.6259766,1.1011604,6.6332226,0.292713,4.7103395
			C0.0590617,4.154532,0.101882,3.5152984,0.0972751,2.9079587s0.0874716-1.2297994,0.3427987-1.7445291
			C0.981677,0.0717332,2.2177961-0.288932,3.1479123,0.2406224c0.9300573,0.5295544,1.5202687,1.8009042,1.5829341,3.0866356
			C5.1463509,2.5624726,5.999568,2.2331843,6.682744,2.5739455C7.3659196,2.9147215,7.8104835,3.8913789,7.6998,4.8082061
			C7.624023,5.4359369,7.326407,5.9815269,7.0221171,6.4870577c-0.864675,1.4365625-1.8545036,2.7519436-2.9421396,3.9223557
			c1.0754099-0.8803272,2.2903256-1.5326872,3.604939-1.9144821c0.4357042-0.1265411,0.8911352-0.2245846,1.3754473-0.1323881
			c0.484313,0.0921822,1.0070162,0.4009752,1.3551302,0.9295406c0.3218908,0.4886389,0.4526548,1.1166201,0.4057007,1.6473713
			c-0.2091999,2.3649216-2.8286219,2.0439758-4.11518,1.7197962c-1.0124497-0.255106-2.0582099-0.6102333-3.0283117-0.6120796
			c0.3243122,0.3660698,0.6106472,0.7654209,0.8444757,1.1962376c0.2229018,0.410573-0.4035149,0.7773657-0.6266532,0.3663054
			c-0.3452795-0.6360292-0.7920282-1.1905966-1.3434355-1.6595974c-0.4381847-0.372714-0.971283-0.6991224-1.4875482-1.0146933
			c-0.0116944-0.0071316-0.0205537-0.0156221-0.0308897-0.0233889c-0.0349649,0.0147505-0.0683352,0.0325432-0.1057218,0.0420523
			c-0.2529647,0.0643787-0.536819,0.0032482-0.7190859-0.1909781c-0.0889481-0.0947809-0.1551572-0.2096577-0.1895315-0.3353281
			c-0.03213-0.1175194-0.0144703-0.3478632-0.0144703-0.3478632L0.0816826,9.8483639z"/>
		<path fill="#FF9E42" d="M6.7007251,6.5685725c0.2434692-0.4044189,0.4815674-0.8408813,0.5421753-1.3430786
			c0.088562-0.7334595-0.2670898-1.5147707-0.8136597-1.7874148c-0.5465088-0.272583-2.1245728,1.3444216-2.4569702,1.956238
			c-0.0501099-1.0285645,0.3731689-3.399231-0.3708496-3.822876C2.8572803,1.147796,1.8683888,1.4363092,1.4351002,2.3096611
			c-0.2042236,0.4118042-0.2778931,0.90979-0.274231,1.3956299c0.0037231,0.4859011-0.0305786,0.9972537,0.1563721,1.4419558
			c0.5389404,1.2819214,1.2403563,3.7066646,1.6423949,4.643188C3.0201831,9.9314871,6.0781665,7.6029353,6.7007251,6.5685725z"/>
		<path fill="#FF9E42" d="M9.5360298,9.8556671C9.3042793,9.4382868,8.9222822,9.1711226,8.5547161,9.0673685
			C8.1871548,8.9635572,7.8285666,9.0029488,7.4831762,9.0649366c-0.9237952,0.1657257-2.9539213,1.8184261-2.9908066,1.8287458
			c0.6977491,0.4371891,1.5065818,1.0372944,1.9424014,1.1874657c0.9708419,0.3344507,2.9713407,0.7639437,3.2989421-0.9742804
			C9.8072157,10.7167368,9.7503128,10.2415409,9.5360298,9.8556671z"/>
	</g>
</g>
</svg>
