<?xml version="1.0" encoding="utf-8"?>
<!-- Generator: Adobe Illustrator 25.1.0, SVG Export Plug-In . SVG Version: 6.00 Build 0)  -->
<svg version="1.1" id="Layer_1" xmlns="http://www.w3.org/2000/svg" xmlns:xlink="http://www.w3.org/1999/xlink" x="0px" y="0px"
	 viewBox="0 0 58.8300018 17.6200008" enable-background="new 0 0 58.8300018 17.6200008" xml:space="preserve">
<g>
	<g>
		<g>
			<path d="M8.4919624,0.665957h2.184082v7.8959966h4.0458984v2.0161133H8.4919624V0.665957z"/>
			<path d="M19.2575874,0.665957h1.8061523l4.3120117,9.9121094H22.911396l-0.8540039-2.1000977h-3.8496094l-0.8261719,2.1000977
				h-2.4082031L19.2575874,0.665957z M20.0974312,3.5502343l-1.2041016,3.0795898h2.4223633L20.0974312,3.5502343z"/>
			<path d="M26.117939,8.3519926l3.8500977-3.4580083c0.1958008-0.1772461,0.3920898-0.3779297,0.5878906-0.6020508
				c0.1958008-0.2236328,0.2939453-0.4848633,0.2939453-0.7836914c0-0.3359375-0.121582-0.5996094-0.3637695-0.7910156
				c-0.2431641-0.1914062-0.527832-0.2871094-0.8540039-0.2871094c-0.3920898,0-0.6982422,0.121582-0.9169922,0.3637695
				c-0.2197266,0.2431641-0.3432617,0.5415039-0.3710938,0.8959961l-2.1000977-0.1538086
				c0.027832-0.5131836,0.1352539-0.9589844,0.3217773-1.3369141c0.1870117-0.3779297,0.434082-0.6928711,0.7421875-0.9453125
				c0.3081055-0.2519531,0.6694336-0.4409179,1.0849609-0.5668945c0.4150391-0.1259766,0.8657227-0.1889648,1.3510742-0.1889648
				c0.4477539,0,0.8681641,0.0629883,1.2597656,0.1889648c0.3920898,0.1259766,0.7329102,0.3129883,1.0224609,0.5600585
				c0.2890625,0.2475586,0.5151367,0.5581055,0.6787109,0.9311523c0.1630859,0.3735352,0.2451172,0.8071289,0.2451172,1.3017578
				c0,0.3173828-0.0327148,0.6044922-0.0981445,0.8613281s-0.15625,0.4897461-0.2729492,0.699707
				s-0.2543945,0.4038086-0.4130859,0.5810547s-0.3310547,0.3500977-0.5180664,0.5180664l-3.0097656,2.5898442h4.3959961v1.8481445
				H26.117939V8.3519926z"/>
			<path d="M34.2517281,5.6220117c0-0.5878906,0.0537109-1.1850586,0.1611328-1.7919922
				c0.1069336-0.6064453,0.2983398-1.1572266,0.5737305-1.6518555s0.6513672-0.8984375,1.1274414-1.2109375
				c0.4755859-0.3129883,1.0825195-0.4692383,1.8198242-0.4692383s1.34375,0.15625,1.8198242,0.4692383
				c0.4760742,0.3124999,0.8515625,0.7163085,1.1269531,1.2109375s0.4667969,1.0454102,0.5742188,1.6518555
				c0.1069336,0.6069336,0.1611328,1.2041016,0.1611328,1.7919922s-0.0541992,1.1855469-0.1611328,1.7919922
				c-0.1074219,0.6069341-0.2988281,1.157227-0.5742188,1.6518559c-0.2753906,0.4951172-0.6508789,0.8984375-1.1269531,1.2114258
				c-0.4760742,0.3125-1.0825195,0.46875-1.8198242,0.46875s-1.3442383-0.15625-1.8198242-0.46875
				c-0.4760742-0.3129883-0.8520508-0.7163086-1.1274414-1.2114258c-0.2753906-0.4946289-0.4667969-1.0449219-0.5737305-1.6518559
				C34.305439,6.8075585,34.2517281,6.2099023,34.2517281,5.6220117z M36.3518257,5.6220117
				c0,0.2612305,0.0117188,0.5742188,0.0351562,0.9379883c0.0229492,0.3642578,0.0859375,0.7138672,0.1889648,1.050293
				c0.1025391,0.3359375,0.2587891,0.6206059,0.46875,0.8540044s0.5063477,0.3496094,0.8891602,0.3496094
				c0.3730469,0,0.6669922-0.1162109,0.8818359-0.3496094s0.3735352-0.5180669,0.4760742-0.8540044
				c0.1025391-0.3364258,0.1655273-0.6860352,0.1889648-1.050293c0.0234375-0.3637695,0.0351562-0.6767578,0.0351562-0.9379883
				s-0.0117188-0.5737305-0.0351562-0.9379883c-0.0234375-0.3637695-0.0864258-0.7138672-0.1889648-1.0498047
				s-0.2612305-0.6206055-0.4760742-0.8540039s-0.5087891-0.3500977-0.8818359-0.3500977
				c-0.3828125,0-0.6791992,0.1166992-0.8891602,0.3500977s-0.3662109,0.5180664-0.46875,0.8540039
				c-0.1030273,0.3359375-0.1660156,0.6860352-0.1889648,1.0498047C36.3635445,5.0482812,36.3518257,5.3607812,36.3518257,5.6220117
				z"/>
			<path d="M49.3855171,2.5141015h-3.9335938l-0.0419922,1.5258789c0.2143555-0.074707,0.5083008-0.1118164,0.8818359-0.1118164
				c0.5039062,0,0.9658203,0.074707,1.3857422,0.2241211c0.4204102,0.1494141,0.7817383,0.3662109,1.0854492,0.6508789
				c0.3027344,0.284668,0.5385742,0.6298828,0.706543,1.0361328c0.168457,0.4057617,0.2524414,0.8608398,0.2524414,1.3647461
				c0,0.5600586-0.0961914,1.0595708-0.2871094,1.4980474c-0.1914062,0.4389648-0.4550781,0.8095703-0.7910156,1.112793
				c-0.3359375,0.3037109-0.7348633,0.534668-1.1972656,0.6933594c-0.4619141,0.1582031-0.9638672,0.237793-1.5048828,0.237793
				c-0.8588867,0-1.5771484-0.2099609-2.1557617-0.6298828c-0.5791016-0.4199219-0.9755859-1.0546875-1.1899414-1.9042969
				l2.1977539-0.5039067c0.0561523,0.3549809,0.2050781,0.6420903,0.4482422,0.8613286
				c0.2421875,0.2192383,0.5458984,0.3286133,0.909668,0.3286133c0.4482422,0,0.8051758-0.1396484,1.0712891-0.4199219
				c0.265625-0.2797852,0.3989258-0.6342778,0.3989258-1.0639653c0-0.3266602-0.0678711-0.5947266-0.203125-0.8051758
				c-0.1352539-0.2099609-0.3129883-0.3779297-0.5322266-0.5039062s-0.4643555-0.2119141-0.7348633-0.2587891
				s-0.5415039-0.0698242-0.8120117-0.0698242c-0.3452148,0-0.6928711,0.0327148-1.0429688,0.0976562
				c-0.3500977,0.0654297-0.6884766,0.1542969-1.0151367,0.2661133l0.1123047-5.4741211h5.9916992V2.5141015z"/>
			<path d="M50.9680367,5.6220117c0-0.5878906,0.0537109-1.1850586,0.1611328-1.7919922
				c0.1069336-0.6064453,0.2983398-1.1572266,0.5737305-1.6518555s0.6513672-0.8984375,1.1274414-1.2109375
				c0.4755859-0.3129883,1.0825195-0.4692383,1.8198242-0.4692383s1.34375,0.15625,1.8198242,0.4692383
				c0.4760742,0.3124999,0.8515625,0.7163085,1.1269531,1.2109375s0.4667969,1.0454102,0.5742188,1.6518555
				c0.1069336,0.6069336,0.1611328,1.2041016,0.1611328,1.7919922s-0.0541992,1.1855469-0.1611328,1.7919922
				c-0.1074219,0.6069341-0.2988281,1.157227-0.5742188,1.6518559c-0.2753906,0.4951172-0.6508789,0.8984375-1.1269531,1.2114258
				c-0.4760742,0.3125-1.0825195,0.46875-1.8198242,0.46875s-1.3442383-0.15625-1.8198242-0.46875
				c-0.4760742-0.3129883-0.8520508-0.7163086-1.1274414-1.2114258c-0.2753906-0.4946289-0.4667969-1.0449219-0.5737305-1.6518559
				C51.0217476,6.8075585,50.9680367,6.2099023,50.9680367,5.6220117z M53.0681343,5.6220117
				c0,0.2612305,0.0117188,0.5742188,0.0351562,0.9379883c0.0229492,0.3642578,0.0859375,0.7138672,0.1889648,1.050293
				c0.1025391,0.3359375,0.2587891,0.6206059,0.46875,0.8540044s0.5063477,0.3496094,0.8891602,0.3496094
				c0.3730469,0,0.6669922-0.1162109,0.8818359-0.3496094s0.3735352-0.5180669,0.4760742-0.8540044
				c0.1025391-0.3364258,0.1655273-0.6860352,0.1889648-1.050293c0.0234375-0.3637695,0.0351562-0.6767578,0.0351562-0.9379883
				s-0.0117188-0.5737305-0.0351562-0.9379883c-0.0234375-0.3637695-0.0864258-0.7138672-0.1889648-1.0498047
				s-0.2612305-0.6206055-0.4760742-0.8540039s-0.5087891-0.3500977-0.8818359-0.3500977
				c-0.3828125,0-0.6791992,0.1166992-0.8891602,0.3500977s-0.3662109,0.5180664-0.46875,0.8540039
				c-0.1030273,0.3359375-0.1660156,0.6860352-0.1889648,1.0498047C53.0798531,5.0482812,53.0681343,5.3607812,53.0681343,5.6220117
				z"/>
		</g>
		<g>
			<path d="M0.9299408,10.5053139V8.9765863l2.992619-1.0558996v-0.012877l-2.992619-1.0622249V5.3234086h4.5859566v1.0104918
				h-3.51718V6.346777l3.51718,1.2047739v0.7708025l-3.51718,1.1593657v0.0131025h3.51718v1.0104923H0.9299408z"/>
			<path d="M3.5597496,3.2314894L0.9299408,4.9542727V3.6977661l1.716458-0.9716353l-1.716458-1.0299201V0.4979883
				l2.6298089,1.7230093h1.9561477v1.0104918H3.5597496z"/>
		</g>
	</g>
	<g>
		<path d="M4.0404539,14.8555298v1.910923c-0.0951722,0.0582809-0.2026415,0.1096096-0.3234777,0.1529179
			c-0.1203015,0.0438423-0.2454152,0.0812702-0.3748064,0.1122818c-0.129391,0.0310097-0.2609208,0.0540009-0.3940544,0.0684376
			c-0.1336684,0.0149708-0.2582474,0.0219212-0.3753409,0.0219212c-0.3282897,0-0.6212909-0.0545368-0.878469-0.1641445
			c-0.2577127-0.1096077-0.4747903-0.2571774-0.6517673-0.4432449c-0.176977-0.1860657-0.3122495-0.4026089-0.4052827-0.6490936
			c-0.0930333-0.2464838-0.1395499-0.5063353-0.1395499-0.7800884c0-0.2881889,0.0502594-0.5565958,0.150778-0.8046846
			c0.1005186-0.2480879,0.2389992-0.463562,0.4159762-0.6464205c0.1769769-0.1823235,0.3897771-0.3256159,0.6378657-0.4293423
			c0.2480887-0.1042614,0.5202376-0.1561251,0.8159121-0.1561251c0.3576968,0,0.6496286,0.0443783,0.8757956,0.134203
			c0.226167,0.0892906,0.4159763,0.212266,0.5694275,0.3694601L3.5913279,13.951931
			c-0.1609368-0.1529169-0.3304284-0.2598515-0.5090094-0.3202696c-0.1791158-0.0598831-0.367321-0.0903597-0.564081-0.0903597
			c-0.2229588,0-0.4234614,0.0411701-0.6025772,0.1235094c-0.1785811,0.0818052-0.3320324,0.1924829-0.4598194,0.3309631
			c-0.127787,0.1390152-0.226167,0.3020906-0.2956746,0.4902964c-0.0689729,0.1876698-0.1037267,0.3876381-0.1037267,0.599369
			c0,0.2192163,0.0379618,0.4223919,0.1149548,0.6105976c0.0764583,0.1876698,0.1823238,0.3512802,0.3175962,0.4897614
			c0.1347378,0.1390152,0.2935359,0.2475529,0.4763943,0.3261509c0.1823237,0.0780621,0.3812225,0.1176281,0.5966959,0.1176281
			c0.1860664,0,0.3619742-0.0176449,0.5282576-0.0523987c0.1657488-0.0342197,0.3074374-0.0844784,0.424531-0.1502438v-1.0784359
			H2.6551142v-0.4929695H4.0404539z"/>
		<path d="M5.1354656,13.1472473h1.3634181c0.2480884,0,0.4523339,0.0336847,0.6127362,0.1015882
			c0.1609364,0.0673685,0.2876544,0.152916,0.3806872,0.2571774c0.0930333,0.1037273,0.1577291,0.2208204,0.1946216,0.3502111
			c0.0363579,0.1299257,0.0545368,0.2545052,0.0545368,0.3753414c0,0.1240444-0.0219216,0.2432766-0.0657649,0.3582315
			s-0.1064,0.2192163-0.1887398,0.3122492c-0.0823398,0.0930338-0.1828585,0.1716309-0.3010216,0.2352562
			c-0.1186976,0.0641613-0.2512965,0.1031923-0.3972626,0.1176291l1.1008935,1.7687006h-0.657114l-0.985404-1.7082825H5.6610498
			v1.7082825H5.1354656V13.1472473z M5.6610498,14.8555298h0.6897292c0.1021228,0,0.2037106-0.0080204,0.3036947-0.0245953
			c0.1005187-0.0165749,0.1898088-0.0465164,0.2684059-0.0903597s0.1416888-0.1069345,0.1887403-0.1887398
			c0.047586-0.0823393,0.0716462-0.1892748,0.0716462-0.3202696c0-0.1315298-0.0240602-0.2384644-0.0716462-0.3202696
			c-0.0470514-0.0823393-0.1101432-0.1454315-0.1887403-0.1892748s-0.1678872-0.0737848-0.2684059-0.0903597
			c-0.0999842-0.0160398-0.2015719-0.0245953-0.3036947-0.0245953H5.6610498V14.8555298z"/>
		<path d="M9.8331089,13.1472473h0.4763947l1.6590919,3.8763847h-0.6132708l-0.3887072-0.9581356H9.1214581L8.7380972,17.023632
			H8.1248264L9.8331089,13.1472473z M10.7746696,15.6056767l-0.7223444-1.7793941h-0.0112286l-0.733572,1.7793941H10.7746696z"/>
		<path d="M12.6091347,13.1472473h0.6897297l2.1354866,3.186655h0.0106936v-3.186655h0.5255842v3.8763847h-0.6678076
			l-2.1574087-3.186656h-0.0106936v3.186656h-0.5255842V13.1472473z"/>
		<path d="M17.9141674,13.6402159h-1.2479286v-0.4929686h3.0219765v0.4929686h-1.2484627v3.3834162h-0.5255852V13.6402159z"/>
		<path d="M20.4987812,16.2130661c0.0946369,0.1427574,0.2160072,0.2475548,0.3641129,0.3149223
			c0.1475697,0.0679035,0.2999516,0.1015892,0.4571457,0.1015892c0.0876865,0,0.1769772-0.0139027,0.2684059-0.0411701
			c0.0908947-0.0272694,0.1743031-0.0684376,0.2491589-0.1229744c0.0743198-0.0550728,0.135807-0.1224403,0.1833916-0.2026424
			c0.0470524-0.0802002,0.0711117-0.173769,0.0711117-0.2796345c0-0.1491737-0.0475845-0.2635937-0.1427574-0.3421907
			c-0.0946369-0.0780621-0.212265-0.1438274-0.3528843-0.1967602s-0.2940712-0.1042614-0.4598198-0.153451
			c-0.1662827-0.0491905-0.3197346-0.1176281-0.4598198-0.2053146c-0.1406193-0.0876865-0.2582474-0.2053146-0.3534184-0.3528852
			c-0.0946369-0.1481047-0.1422234-0.3480721-0.1422234-0.5999031c0-0.1128168,0.0245953-0.2336531,0.0737839-0.3614397
			c0.0491905-0.1272526,0.1267185-0.2443457,0.232584-0.3502111s0.2422066-0.194087,0.4079552-0.2657328
			c0.1662846-0.0711117,0.3662529-0.1064005,0.599905-0.1064005c0.211195,0,0.4138374,0.0288725,0.6073895,0.0876865
			c0.193552,0.058279,0.3630428,0.1769772,0.5095444,0.3555584l-0.4272041,0.3887072
			c-0.0657654-0.1021223-0.1587982-0.1839275-0.2791004-0.2464848c-0.1208363-0.0620222-0.2577133-0.0930328-0.4106293-0.0930328
			c-0.1465015,0-0.2678719,0.019248-0.3641129,0.057745c-0.096777,0.038496-0.1743031,0.0876865-0.2331181,0.1475697
			c-0.058279,0.0604181-0.0994492,0.1251135-0.1229744,0.1946211s-0.0358238,0.1331339-0.0358238,0.1914139
			c0,0.1641445,0.0475864,0.2903271,0.1427574,0.3780136c0.0946388,0.0876865,0.2122669,0.1587982,0.3528862,0.213335
			c0.1406193,0.0550718,0.2940693,0.1042614,0.4598179,0.1481047c0.1662846,0.0438433,0.3197365,0.1047964,0.4598198,0.1833935
			c0.1406193,0.0785971,0.2582474,0.1844616,0.3534203,0.3175955c0.0946369,0.1331339,0.1422234,0.3165274,0.1422234,0.5501795
			c0,0.1860657-0.0352898,0.3539543-0.1064014,0.5036621c-0.0716457,0.1497097-0.1673527,0.2753582-0.287653,0.3774796
			c-0.1203022,0.1026573-0.2630596,0.1807213-0.427206,0.2357922c-0.1641445,0.0545368-0.3395176,0.0818043-0.5255833,0.0818043
			c-0.2480888,0-0.483345-0.0438423-0.7063046-0.1309948c-0.2224236-0.0876865-0.3994007-0.2229595-0.5309315-0.405283
			L20.4987812,16.2130661z"/>
		<path d="M27.9227257,13.9850807c-0.1096077-0.1422234-0.2480888-0.2518311-0.4159756-0.328824
			c-0.1678886-0.0764589-0.3411217-0.1149549-0.5202389-0.1149549c-0.2186813,0-0.4170456,0.0411701-0.5940228,0.1235094
			c-0.1769753,0.0818052-0.328289,0.194087-0.4544716,0.3368444c-0.1256485,0.1422234-0.2234936,0.309042-0.2930012,0.5004549
			c-0.0689735,0.1919479-0.1037273,0.3972626-0.1037273,0.6159439c0,0.2047806,0.0326157,0.3983316,0.098381,0.5806561
			c0.0657635,0.1823235,0.1604023,0.3432608,0.2849808,0.48174c0.1240444,0.1390152,0.2753563,0.2480888,0.4539375,0.3282909
			c0.1791153,0.0807362,0.3817577,0.1208363,0.6079235,0.1208363c0.2224255,0,0.4181156-0.0459824,0.5860023-0.1368771
			c0.1678886-0.0914288,0.310112-0.2192154,0.4272041-0.3833618l0.4432449,0.3341713
			c-0.0294075,0.040102-0.0802002,0.097311-0.15345,0.1721649c-0.0727158,0.0748558-0.1694927,0.1497097-0.2897949,0.2245636
			c-0.1208363,0.0748539-0.2657318,0.1406193-0.4357586,0.1972942c-0.1694908,0.0561409-0.3657169,0.0844784-0.5881405,0.0844784
			c-0.3069038,0-0.5833302-0.058279-0.829813-0.1748371c-0.2464848-0.117094-0.4560776-0.27001-0.6293125-0.4603539
			c-0.173769-0.1892757-0.3058319-0.4042149-0.3972626-0.6432133c-0.0908947-0.2389994-0.1368752-0.4806719-0.1368752-0.7255526
			c0-0.2988825,0.0491886-0.5753088,0.1481037-0.8292789c0.098381-0.2534351,0.2363262-0.4726515,0.4133034-0.657114
			c0.1769772-0.1839275,0.3897762-0.32722,0.6378651-0.4298773c0.2480888-0.1021233,0.521841-0.1529169,0.8212585-0.1529169
			c0.2555752,0,0.5063362,0.0491896,0.752821,0.1475697c0.2464848,0.0989151,0.4480572,0.2502279,0.6047173,0.4544725
			L27.9227257,13.9850807z"/>
		<path d="M29.2150326,13.1472473h0.5255833v1.6099024h2.009304v-1.6099024h0.5255852v3.8763847h-0.5255852v-1.7740479h-2.009304
			v1.7740479h-0.5255833V13.1472473z"/>
		<path d="M34.6243248,13.1472473h0.4763947l1.6590919,3.8763847h-0.6132698l-0.3887062-0.9581356H33.912674l-0.383358,0.9581356
			h-0.6132736L34.6243248,13.1472473z M35.5658875,15.6056767l-0.7223434-1.7793941h-0.0112305l-0.7335701,1.7793941H35.5658875z"/>
		<path d="M37.4003525,13.1472473h0.5255852v3.3834152h1.7793922v0.4929695h-2.3049774V13.1472473z"/>
		<path d="M40.3790207,13.1472473h0.5255814v3.3834152h1.7793961v0.4929695h-2.3049774V13.1472473z"/>
		<path d="M43.3576889,13.1472473h2.5022697v0.4929686h-1.9766884v1.1548958h1.8398132v0.4929695h-1.8398132v1.2425814h2.0750694
			v0.4929695h-2.6006508V13.1472473z"/>
		<path d="M46.8400154,13.1472473h0.6897316l2.1354866,3.186655h0.0106926v-3.186655h0.5255852v3.8763847h-0.6678085
			l-2.1574097-3.186656h-0.0106926v3.186656h-0.5255852V13.1472473z"/>
		<path d="M54.636631,14.8555298v1.910923c-0.0951729,0.0582809-0.2026443,0.1096096-0.3234787,0.1529179
			c-0.1203003,0.0438423-0.2454147,0.0812702-0.3748055,0.1122818c-0.1293907,0.0310097-0.2609215,0.0540009-0.3940544,0.0684376
			c-0.1336708,0.0149708-0.2582474,0.0219212-0.3753433,0.0219212c-0.328289,0-0.6212883-0.0545368-0.8784676-0.1641445
			c-0.2577133-0.1096077-0.4747925-0.2571774-0.6517677-0.4432449c-0.1769753-0.1860657-0.3122482-0.4026089-0.4052811-0.6490936
			c-0.0930367-0.2464838-0.1395531-0.5063353-0.1395531-0.7800884c0-0.2881889,0.0502625-0.5565958,0.1507797-0.8046846
			c0.1005173-0.2480879,0.2389984-0.463562,0.4159775-0.6464205c0.1769753-0.1823235,0.3897743-0.3256159,0.6378632-0.4293423
			c0.2480888-0.1042614,0.520237-0.1561251,0.8159142-0.1561251c0.3576965,0,0.6496277,0.0443783,0.8757935,0.134203
			c0.2261696,0.0892906,0.4159775,0.212266,0.5694275,0.3694601l-0.3721313,0.3994007
			c-0.1609383-0.1529169-0.3304291-0.2598515-0.5090103-0.3202696c-0.1791153-0.0598831-0.367321-0.0903597-0.5640793-0.0903597
			c-0.2229614,0-0.4234619,0.0411701-0.6025772,0.1235094c-0.1785812,0.0818052-0.3320351,0.1924829-0.4598198,0.3309631
			c-0.1277885,0.1390152-0.2261658,0.3020906-0.2956734,0.4902964c-0.0689735,0.1876698-0.1037292,0.3876381-0.1037292,0.599369
			c0,0.2192163,0.0379639,0.4223919,0.1149559,0.6105976c0.076458,0.1876698,0.1823235,0.3512802,0.3175964,0.4897614
			c0.1347389,0.1390152,0.2935371,0.2475529,0.4763947,0.3261509c0.1823235,0.0780621,0.3812218,0.1176281,0.5966949,0.1176281
			c0.1860657,0,0.3619728-0.0176449,0.5282593-0.0523987c0.1657486-0.0342197,0.3074341-0.0844784,0.42453-0.1502438v-1.0784359
			h-0.8597565v-0.4929695H54.636631z"/>
		<path d="M55.7316399,13.1472473h2.5022736v0.4929686H56.257225v1.1548958h1.8398132v0.4929695H56.257225v1.2425814h2.0750694
			v0.4929695h-2.6006546V13.1472473z"/>
	</g>
</g>
</svg>
