<?xml version="1.0" encoding="utf-8"?>
<!-- Generator: Adobe Illustrator 24.2.0, SVG Export Plug-In . SVG Version: 6.00 Build 0)  -->
<svg version="1.1" id="Layer_2" xmlns="http://www.w3.org/2000/svg" xmlns:xlink="http://www.w3.org/1999/xlink" x="0px" y="0px"
	 viewBox="0 0 202.1300049 55.9599991" enable-background="new 0 0 202.1300049 55.9599991" xml:space="preserve">
<g>
	<g>
		<g>
			<path fill="#FFFFFF" d="M19.399374,34.2155266H3.4597964v-4.8166656l10.8728352-2.8921738L3.4597964,23.647131v-4.8275394
				H19.399374v2.9900303H6.8521214l12.5472527,3.1639957v3.0987568L6.8521214,31.2254982H19.399374V34.2155266z"/>
		</g>
		<g>
			<path fill="#FFFFFF" d="M19.399374,10.3233767h-6.70854l-9.2310371,5.8387117v-3.7728729l6.3062444-3.7511292L3.4597964,4.963068
				V1.2554312l9.2527828,5.8604584h6.6867943V10.3233767z"/>
		</g>
	</g>
	<g>
		<path fill="#FFFFFF" stroke="#FFFFFF" stroke-width="0.25" stroke-miterlimit="10" d="M29.7404289,34.5614204V1.5347972h6.7231026
			v27.4164429h16.7166138v5.6101799H29.7404289z"/>
		<path fill="#FFFFFF" stroke="#FFFFFF" stroke-width="0.25" stroke-miterlimit="10" d="M90.3272095,34.5614204h-7.313736
			l-2.9076233-7.5643654h-13.309494l-2.7498856,7.5643654h-7.1314621L69.8844986,1.263139h7.1104279L90.3272095,34.5614204z
			 M77.9483643,21.3868752L73.3599701,9.0308104l-4.497261,12.3560648H77.9483643z"/>
		<path fill="#FFFFFF" stroke="#FFFFFF" stroke-width="0.25" stroke-miterlimit="10" d="M116.367836,28.6322613v5.9291592H93.993721
			c0.2418594-2.2416191,0.9692078-4.3640575,2.180275-6.3708229s3.6034164-4.6690159,7.1770325-7.9849968
			c2.8778229-2.6797771,4.6427231-4.4972582,5.2929535-5.4506903c0.878067-1.3179808,1.3179779-2.6201868,1.3179779-3.90662
			c0-1.4231377-0.3820724-2.5185337-1.1479721-3.2826819c-0.7641525-0.7641482-1.8209839-1.1462221-3.1687622-1.1462221
			c-1.3320007,0-2.3923416,0.4013529-3.1792755,1.2023063c-0.7869339,0.8027058-1.2426147,2.1364603-1.3635483,3.997757
			l-6.3585587-0.6344538c0.3785706-3.5140295,1.5668564-6.0343165,3.5648575-7.5643654
			c1.9997559-1.530049,4.497261-2.2941971,7.4960175-2.2941971c3.2861862,0,5.8678131,0.8850799,7.7466354,2.6569922
			c1.8770752,1.7719121,2.8164825,3.9749722,2.8164825,6.6109328c0,1.4985018-0.2699051,2.9251451-0.8079605,4.281683
			c-0.5363083,1.354785-1.388092,2.7744188-2.5553436,4.2588987c-0.7711563,0.9832287-2.1644974,2.3993549-4.1782761,4.2466316
			c-2.0137787,1.8472748-3.2896957,3.0741177-3.8277512,3.6805286c-0.5380554,0.60466-0.9727097,1.1952972-1.3057098,1.7701607
			H116.367836z"/>
		<path fill="#FFFFFF" stroke="#FFFFFF" stroke-width="0.25" stroke-miterlimit="10" d="M133.7977753,1.1264336
			c3.2248383,0,5.7451324,1.1514802,7.5626068,3.4526875c2.1662598,2.7253451,3.2476349,7.2453866,3.2476349,13.5601254
			c0,6.2989635-1.0901337,10.8277683-3.2704163,13.5829086c-1.8016968,2.27141-4.3149872,3.4071178-7.5398254,3.4071178
			c-3.2423706,0-5.8537979-1.2461205-7.8377762-3.7366142s-2.9742203-6.9316635-2.9742203-13.3217659
			c0-6.2691689,1.0901413-10.7821999,3.2704163-13.5373402C128.0579071,2.26214,130.5711823,1.1264336,133.7977753,1.1264336z
			 M133.7977753,6.4193864c-0.7729187,0-1.4617004,0.2453685-2.0681152,0.7378583
			c-0.6063995,0.4924903-1.0743561,1.3740644-1.4073639,2.6464767c-0.4399109,1.6492281-0.6589813,4.4289045-0.6589813,8.3355246
			s0.1962891,6.5916538,0.5906372,8.0515976c0.3925934,1.4616947,0.8885803,2.4344063,1.4879913,2.9198856
			c0.597641,0.4837284,1.2829132,0.7255917,2.0558319,0.7255917c0.7711639,0,1.4599457-0.245369,2.0663605-0.7378597
			c0.6046448-0.4924889,1.0743561-1.3740635,1.4073639-2.6464767c0.4399109-1.6352062,0.6589813-4.4061203,0.6589813-8.3127384
			s-0.1962891-6.5916548-0.5906372-8.0515985c-0.3925934-1.4616957-0.8885803-2.4379125-1.4879761-2.9304028
			C135.2542114,6.6647549,134.5689392,6.4193864,133.7977753,6.4193864z"/>
		<path fill="#FFFFFF" stroke="#FFFFFF" stroke-width="0.25" stroke-miterlimit="10" d="M151.2943115,25.9980526l6.3603058-0.658989
			c0.1822815,1.4389114,0.7185822,2.5781231,1.6124268,3.4193878c0.8938446,0.83951,1.9226379,1.2601433,3.0898895,1.2601433
			c1.3320007,0,2.4606934-0.5415649,3.3843384-1.624691c0.9236298-1.0813751,1.3845825-2.7130775,1.3845825-4.8951054
			c0-2.0435715-0.4574432-3.5771255-1.3740692-4.5989094c-0.9148712-1.0217857-2.1084137-1.5335541-3.5771179-1.5335541
			c-1.8315125,0-3.4754791,0.8114681-4.9284058,2.4309025l-5.1790314-0.7501278l3.270401-17.3300381h16.8778687v5.9729743
			h-12.0388336l-1.0007629,5.6557474c1.4248962-0.7115688,2.8778229-1.0673532,4.3623047-1.0673532
			c2.8305054,0,5.2316132,1.0305481,7.1998138,3.0898924c1.9682159,2.0593452,2.953186,4.732111,2.953186,8.0182972
			c0,2.7411194-0.7956848,5.1860428-2.3853302,7.3365231c-2.1662445,2.9374123-5.1720123,4.4061203-9.0172882,4.4061203
			c-3.0741272,0-5.5803986-0.825489-7.5187988-2.4764709C152.8313751,31.0035744,151.6728821,28.7847404,151.2943115,25.9980526z"/>
		<path fill="#FFFFFF" stroke="#FFFFFF" stroke-width="0.25" stroke-miterlimit="10" d="M190.1922607,1.1264336
			c3.2248383,0,5.7451324,1.1514802,7.5626068,3.4526875c2.1662598,2.7253451,3.2476349,7.2453866,3.2476349,13.5601254
			c0,6.2989635-1.0901337,10.8277683-3.2704163,13.5829086c-1.801712,2.27141-4.3149872,3.4071178-7.5398254,3.4071178
			c-3.2423706,0-5.8538055-1.2461205-7.8377838-3.7366142s-2.9742126-6.9316635-2.9742126-13.3217659
			c0-6.2691689,1.0901337-10.7821999,3.2704163-13.5373402C184.4523773,2.26214,186.9656525,1.1264336,190.1922607,1.1264336z
			 M190.1922607,6.4193864c-0.7729187,0-1.4617004,0.2453685-2.0681152,0.7378583
			c-0.6063995,0.4924903-1.0743561,1.3740644-1.4073639,2.6464767c-0.4399109,1.6492281-0.6589813,4.4289045-0.6589813,8.3355246
			s0.1962891,6.5916538,0.5906372,8.0515976c0.3925781,1.4616947,0.8885803,2.4344063,1.4879761,2.9198856
			c0.5976562,0.4837284,1.2829285,0.7255917,2.0558472,0.7255917c0.7711487,0,1.4599457-0.245369,2.0663452-0.7378597
			c0.60466-0.4924889,1.0743713-1.3740635,1.4073639-2.6464767c0.4399109-1.6352062,0.6589966-4.4061203,0.6589966-8.3127384
			s-0.1962891-6.5916548-0.5906372-8.0515985c-0.3925934-1.4616957-0.8885803-2.4379125-1.4879913-2.9304028
			C191.6486969,6.6647549,190.9634094,6.4193864,190.1922607,6.4193864z"/>
	</g>
	<g>
		<path fill="#FFFFFF" d="M7.2471328,50.1458359V48.042675h5.4331632v4.9739723
			c-0.5275431,0.5117722-1.2934437,0.9621964-2.2941971,1.3512802c-1.0025063,0.3873329-2.0172806,0.5836296-3.0460768,0.5836296
			c-1.3057117,0-2.4449234-0.2751656-3.4158823-0.8219872c-0.9709589-0.5485725-1.7000544-1.3320007-2.189039-2.3520317
			c-0.4872321-1.01828-0.7326007-2.127697-0.7326007-3.3264999c0-1.3004532,0.2734108-2.4554405,0.8184797-3.4667091
			c0.5450691-1.0095177,1.3425173-1.7859306,2.3923445-2.3239899c0.8009534-0.4153748,1.798202-0.6221848,2.9899926-0.6221848
			c1.5510807,0,2.7621498,0.3242378,3.6332092,0.9744644c0.8710585,0.6502266,1.431901,1.5493279,1.6825275,2.695549
			l-2.5045128,0.4697037c-0.1752634-0.6134186-0.5065107-1.0971451-0.9919901-1.4529305
			c-0.4854803-0.3540344-1.0918908-0.5328026-1.8192339-0.5328026c-1.1006536,0-1.9769702,0.3505287-2.6271973,1.0480766
			c-0.6502271,0.6992989-0.9744642,1.7351074-0.9744642,3.109169c0,1.4827309,0.3277423,2.5938988,0.9867327,3.3352623
			s1.5230384,1.1111717,2.5903921,1.1111717c0.5275426,0,1.0568376-0.103405,1.5878854-0.3102188
			c0.5310478-0.2085609,0.9867325-0.4591904,1.367054-0.7553825v-1.5843811H7.2471328z"/>
		<path fill="#FFFFFF" d="M15.8876152,54.7377357V42.2502213h5.3069725c1.3337555,0,2.3029613,0.1121712,2.9076195,0.3365059
			c0.606411,0.2243385,1.0901375,0.6239395,1.4529324,1.1970482c0.3627968,0.5731125,0.5450706,1.2303505,0.5450706,1.9682083
			c0,0.9359055-0.2751637,1.7105713-0.825491,2.320488c-0.5520802,0.6099167-1.3740654,0.9954948-2.4712124,1.1549835
			c0.5450687,0.3172264,0.9954948,0.6660004,1.3512802,1.0463219c0.3540306,0.3803215,0.8325005,1.056839,1.4354057,2.0277977
			l1.5230389,2.436161h-3.0145302l-1.8227386-2.7165833c-0.6467209-0.9709587-1.0901375-1.5826263-1.328495-1.8367577
			c-0.2383595-0.2523804-0.4907379-0.4258919-0.7588902-0.5187798c-0.2664013-0.0946426-0.6887856-0.140213-1.2689075-0.140213
			h-0.5100155v5.2123337H15.8876152z M18.4096546,47.5309067h1.8648014c1.2093163,0,1.9647026-0.050827,2.2661552-0.1524811
			c0.2996998-0.1016502,0.5363064-0.2786674,0.7063103-0.5275421c0.1700058-0.2506256,0.2558861-0.5625954,0.2558861-0.9376564
			c0-0.4206314-0.1121693-0.7588921-0.3365059-1.01828c-0.2243385-0.257637-0.5415649-0.4206314-0.9499283-0.488987
			c-0.2050571-0.0280418-0.8184795-0.0420609-1.8402653-0.0420609h-1.9664536V47.5309067z"/>
		<path fill="#FFFFFF" d="M40.6085091,54.7377357h-2.7428703l-1.0901413-2.835762h-4.9914989l-1.0305481,2.835762h-2.6745186
			l4.8635578-12.4875145h2.6657562L40.6085091,54.7377357z M35.9657822,49.7970619l-1.7193336-4.6339645l-1.6877861,4.6339645
			H35.9657822z"/>
		<path fill="#FFFFFF" d="M42.8448677,54.7377357V42.2502213h2.4519348l5.1106796,8.3390312v-8.3390312h2.3432693v12.4875145
			h-2.5308037l-5.0335617-8.1427345v8.1427345H42.8448677z"/>
		<path fill="#FFFFFF" d="M59.100544,54.7377357V44.3638992h-3.7050667v-2.113678h9.9234085v2.113678h-3.6980553v10.3738365
			H59.100544z"/>
		<path fill="#FFFFFF" d="M67.1784286,50.6751289l2.4519348-0.2383575c0.1489716,0.8237381,0.4469223,1.4283981,0.8991013,1.8139763
			s1.0603409,0.5783691,1.8279953,0.5783691c0.81147,0,1.4231415-0.1717567,1.8350067-0.515274
			c0.4118729-0.3435173,0.6169281-0.7448692,0.6169281-1.2040596c0-0.296196-0.0858765-0.5468216-0.2593918-0.7536316
			c-0.1735077-0.2085648-0.4749603-0.3890839-0.9078598-0.5415649c-0.2944412-0.1016502-0.967453-0.2839241-2.0172806-0.5450668
			c-1.353035-0.3347549-2.3012085-0.746624-2.8462753-1.2356071c-0.7659073-0.6870346-1.1497345-1.5247917-1.1497345-2.5132751
			c0-0.6344566,0.1805267-1.2303505,0.5415649-1.7841835c0.3610458-0.5538292,0.8798218-0.9744644,1.5580902-1.263649
			c0.6782684-0.2909355,1.4985046-0.4346504,2.4571915-0.4346504c1.5686111,0,2.7481308,0.3435135,3.5403214,1.0305481
			c0.7921906,0.6870308,1.2075653,1.6036568,1.247879,2.7516327l-2.5220413,0.1104164
			c-0.1086655-0.6414642-0.3400116-1.1041603-0.694046-1.3845787c-0.3557816-0.2804222-0.8868332-0.4223862-1.5966492-0.4223862
			c-0.7325974,0-1.3074646,0.1507263-1.7210846,0.452179c-0.2663956,0.192791-0.3995972,0.452179-0.3995972,0.7746658
			c0,0.2961922,0.1244354,0.5485725,0.3733063,0.7588882c0.318985,0.2663994,1.0918961,0.5450706,2.3169861,0.8342552
			c1.2268448,0.2891846,2.1347046,0.5888824,2.7218399,0.8991013c0.5871277,0.3084602,1.0480728,0.7326012,1.3793182,1.2689056
			c0.3330002,0.5363045,0.4995041,1.1987991,0.4995041,1.9892387c0,0.7150726-0.1997986,1.3845787-0.5958939,2.0102692
			c-0.39785,0.6239395-0.9604492,1.0883865-1.6877899,1.3915901c-0.7255859,0.3049583-1.6316986,0.4556847-2.7165833,0.4556847
			c-1.5791168,0-2.7919464-0.3645477-3.6367111-1.0936432C67.8479385,53.1358261,67.3431778,52.0719795,67.1784286,50.6751289z"/>
		<path fill="#FFFFFF" d="M94.0340271,50.1458359l2.4449234,0.7764168c-0.375061,1.3617935-0.9990005,2.3748169-1.8700562,3.0355606
			c-0.8728104,0.6624947-1.9769745,0.9937439-3.3177338,0.9937439c-1.6579895,0-3.0215454-0.5678558-4.0888977-1.7000542
			c-1.0673523-1.1322021-1.6019058-2.68153-1.6019058-4.6462326c0-2.0786247,0.538063-3.6927986,1.610672-4.8425255
			s2.4834824-1.7245903,4.232605-1.7245903c1.5282974,0,2.769165,0.4504242,3.7225952,1.3530312
			c0.5678558,0.5345535,0.9937439,1.3004532,1.2776718,2.3012085l-2.4957504,0.5958939
			c-0.1472244-0.6467209-0.4556808-1.1584892-0.9236374-1.5335541c-0.4679565-0.375061-1.0375595-0.5625954-1.7088165-0.5625954
			c-0.9253922,0-1.6755219,0.3330002-2.2521362,0.9972496s-0.8640442,1.7403641-0.8640442,3.2283516
			c0,1.5791206,0.2839203,2.7025604,0.8517761,3.3720665c0.5678558,0.671257,1.3057098,1.006012,2.2135773,1.006012
			c0.671257,0,1.2461243-0.2138214,1.7298508-0.6397133C93.4766922,51.730217,93.8237152,51.0607109,94.0340271,50.1458359z"/>
		<path fill="#FFFFFF" d="M99.5215225,54.7377357V42.2502213h2.5220413v4.9143829h4.9389191v-4.9143829h2.5220413v12.4875145
			h-2.5220413v-5.4594536h-4.9389191v5.4594536H99.5215225z"/>
		<path fill="#FFFFFF" d="M124.2441711,54.7377357h-2.7428741l-1.0901337-2.835762h-4.9915009l-1.0305481,2.835762h-2.6745224
			l4.8635635-12.4875145h2.6657486L124.2441711,54.7377357z M119.6014481,49.7970619l-1.7193375-4.6339645l-1.6877823,4.6339645
			H119.6014481z"/>
		<path fill="#FFFFFF" d="M126.5225906,54.7377357V42.3536263h2.5220413v10.2809486h6.269165v2.1031609H126.5225906z"/>
		<path fill="#FFFFFF" d="M138.0496674,54.7377357V42.3536263h2.5220337v10.2809486h6.269165v2.1031609H138.0496674z"/>
		<path fill="#FFFFFF" d="M149.5101318,54.7377357V42.2502213h9.2591553v2.113678h-6.7371216v2.7674065h6.2691803v2.1031609
			h-6.2691803v3.4001083h6.9754944v2.1031609H149.5101318z"/>
		<path fill="#FFFFFF" d="M162.0449677,54.7377357V42.2502213h2.4519348l5.110672,8.3390312v-8.3390312h2.343277v12.4875145
			h-2.5308075l-5.0335541-8.1427345v8.1427345H162.0449677z"/>
		<path fill="#FFFFFF" d="M181.2976379,50.1458359V48.042675h5.4331665v4.9739723
			c-0.5275421,0.5117722-1.2934418,0.9621964-2.2941895,1.3512802c-1.0025177,0.3873329-2.0172882,0.5836296-3.0460815,0.5836296
			c-1.3057098,0-2.444931-0.2751656-3.4158783-0.8219872c-0.9709625-0.5485725-1.700058-1.3320007-2.1890411-2.3520317
			c-0.4872284-1.01828-0.732605-2.127697-0.732605-3.3264999c0-1.3004532,0.273407-2.4554405,0.8184814-3.4667091
			c0.5450745-1.0095177,1.342514-1.7859306,2.3923492-2.3239899c0.8009491-0.4153748,1.7982025-0.6221848,2.9899902-0.6221848
			c1.5510712,0,2.762146,0.3242378,3.6332092,0.9744644s1.4319,1.5493279,1.6825256,2.695549l-2.5045166,0.4697037
			c-0.1752625-0.6134186-0.5065002-1.0971451-0.9919891-1.4529305c-0.4854736-0.3540344-1.0918884-0.5328026-1.8192291-0.5328026
			c-1.1006622,0-1.9769745,0.3505287-2.6271973,1.0480766c-0.6502228,0.6992989-0.974472,1.7351074-0.974472,3.109169
			c0,1.4827309,0.3277435,2.5938988,0.9867401,3.3352623c0.6589813,0.7413635,1.5230408,1.1111717,2.5903931,1.1111717
			c0.5275421,0,1.056839-0.103405,1.5878754-0.3102188c0.5310516-0.2085609,0.9867401-0.4591904,1.3670654-0.7553825v-1.5843811
			H181.2976379z"/>
		<path fill="#FFFFFF" d="M189.9293671,54.7377357V42.2502213h9.2591553v2.113678h-6.7371216v2.7674065h6.269165v2.1031609
			h-6.269165v3.4001083h6.9754791v2.1031609H189.9293671z"/>
	</g>
</g>
</svg>
