<?xml version="1.0" encoding="utf-8"?>
<!-- Generator: Adobe Illustrator 23.0.4, SVG Export Plug-In . SVG Version: 6.00 Build 0)  -->
<svg version="1.1" id="Layer_1" xmlns="http://www.w3.org/2000/svg" xmlns:xlink="http://www.w3.org/1999/xlink" x="0px" y="0px"
	 viewBox="0 0 315 90" style="enable-background:new 0 0 315 90;" xml:space="preserve">
<style type="text/css">
	.st0{fill:#4F4F4F;}
</style>
<g>
	<path class="st0" d="M21.2805176,36.1484375v-0.0302734l-17.5800781-7.109375v-3.3007812h21.2402344v2.1601562H6.4904785v0.0605469
		l18.4501953,7.6796875v1.1396484L6.4904785,44.4287109v0.0595703h18.4501953v2.1601562H3.7004395v-3.2998047L21.2805176,36.1484375
		z"/>
	<path class="st0" d="M24.9406738,12.7783203v2.1601562h-9.1499023l-12.090332,7.9501953v-2.7001953l10.2900391-6.3896484
		L3.7004395,7.3486328V4.8291016l12.090332,7.9492188H24.9406738z"/>
</g>
<g>
	<path class="st0" d="M44.8806152,49.1503906V3.1298828h11.1796875v36.3349609h17.8100586v9.6855469H44.8806152z"/>
	<path class="st0" d="M115.5344238,49.1503906l-3.574707-9.0351562H94.1496582l-3.3798828,9.0351562h-12.090332
		L97.9846191,3.1298828h10.7900391l19.1098633,46.0205078H115.5344238z M103.1848145,15.4150391l-5.8500977,15.7949219h11.5698242
		L103.1848145,15.4150391z"/>
	<path class="st0" d="M136.6584473,49.1503906v-9.0849609L154.5983887,23.84375
		c1.1264648-1.0820312,2.0366211-2.1845703,2.7299805-3.3095703c0.6928711-1.125,1.0400391-2.3789062,1.0400391-3.7626953
		c0-1.6435547-0.5200195-2.9746094-1.5600586-3.9912109s-2.4272461-1.5253906-4.159668-1.5253906
		c-1.8203125,0-3.3051758,0.6396484-4.4526367,1.9179688c-1.1489258,1.2783203-1.8310547,2.9570312-2.0473633,5.0371094
		l-10.465332-1.4296875c0.2602539-2.3398438,0.8989258-4.4238281,1.9174805-6.2519531
		c1.0180664-1.828125,2.3076172-3.3857422,3.8676758-4.6728516s3.3476562-2.2695312,5.3623047-2.9453125
		c2.0151367-0.6767578,4.1489258-1.0146484,6.402832-1.0146484c2.1225586,0,4.1811523,0.2822266,6.1748047,0.8447266
		c1.9926758,0.5634766,3.7700195,1.4296875,5.3300781,2.5996094s2.8051758,2.6435547,3.7373047,4.4199219
		C169.4074707,11.5371094,169.873291,13.6171875,169.873291,16c0,1.6474609-0.2172852,3.1308594-0.6499023,4.453125
		c-0.4335938,1.3222656-1.0297852,2.5458984-1.7875977,3.671875c-0.7583008,1.1279297-1.625,2.1777344-2.5996094,3.1523438
		c-0.9750977,0.9755859-1.9824219,1.9404297-3.0224609,2.8925781l-10.6601562,9.4902344h18.7851562v9.4902344H136.6584473z"/>
	<path class="st0" d="M218.4934082,26.0097656c0,3.25-0.3251953,6.3486328-0.9750977,9.2949219
		c-0.6499023,2.9482422-1.6899414,5.5371094-3.1201172,7.7675781c-1.4296875,2.2324219-3.2822266,4.0087891-5.5571289,5.3300781
		c-2.2753906,1.3212891-5.0375977,1.9824219-8.2875977,1.9824219s-6.0239258-0.6611328-8.3198242-1.9824219
		c-2.2973633-1.3212891-4.1713867-3.0976562-5.6225586-5.3300781c-1.4526367-2.2304688-2.5024414-4.8193359-3.152832-7.7675781
		c-0.6499023-2.9462891-0.9746094-6.0449219-0.9746094-9.2949219s0.324707-6.3369141,0.9746094-9.2617188
		c0.6503906-2.9257812,1.7001953-5.4814453,3.152832-7.6699219c1.4511719-2.1884766,3.3251953-3.9326172,5.6225586-5.2333984
		c2.2958984-1.2998047,5.0698242-1.9492188,8.3198242-1.9492188s6.012207,0.6494141,8.2875977,1.9492188
		c2.2749023,1.3007812,4.1274414,3.0449219,5.5571289,5.2333984c1.4301758,2.1884766,2.4702148,4.7441406,3.1201172,7.6699219
		C218.1682129,19.6728516,218.4934082,22.7597656,218.4934082,26.0097656z M207.3132324,26.0097656
		c0-1.4296875-0.0874023-3.0107422-0.2597656-4.7441406c-0.1738281-1.7333984-0.4985352-3.3476562-0.9750977-4.8427734
		c-0.4775391-1.4951172-1.159668-2.7519531-2.0473633-3.7705078C203.142334,11.6347656,201.9836426,11.125,200.5534668,11.125
		s-2.6000977,0.5097656-3.5102539,1.5273438c-0.909668,1.0185547-1.6147461,2.2753906-2.1123047,3.7705078
		c-0.4985352,1.4951172-0.8349609,3.109375-1.0073242,4.8427734c-0.1738281,1.7333984-0.2602539,3.3144531-0.2602539,4.7441406
		c0,1.4736328,0.0864258,3.0878906,0.2602539,4.8427734c0.1723633,1.7548828,0.5087891,3.3798828,1.0073242,4.875
		c0.4975586,1.4951172,1.2026367,2.7529297,2.1123047,3.7705078c0.9101562,1.0185547,2.0800781,1.5273438,3.5102539,1.5273438
		s2.5888672-0.5087891,3.4775391-1.5273438c0.8876953-1.0175781,1.5698242-2.2753906,2.0473633-3.7705078
		c0.4765625-1.4951172,0.8012695-3.1201172,0.9750977-4.875C207.2258301,29.0976562,207.3132324,27.4833984,207.3132324,26.0097656z
		"/>
	<path class="st0" d="M264.5783691,33.9404297c0,2.8173828-0.4985352,5.2548828-1.4951172,7.3125
		c-0.9970703,2.0585938-2.3295898,3.7597656-3.9975586,5.1025391c-1.668457,1.34375-3.5649414,2.3505859-5.6875,3.0224609
		c-2.1235352,0.6708984-4.3120117,1.0068359-6.5649414,1.0068359c-2.0800781,0-4.0625-0.2705078-5.9472656-0.8125
		c-1.8852539-0.5410156-3.5976562-1.3095703-5.1352539-2.3066406c-1.5385742-0.9970703-2.8598633-2.2207031-3.9648438-3.6728516
		c-1.1049805-1.4511719-1.9174805-3.0878906-2.4375-4.9072266l9.9448242-3.0556641
		c0.4765625,1.6035156,1.375,2.9248047,2.6977539,3.9648438c1.3212891,1.0400391,2.8920898,1.5605469,4.7124023,1.5605469
		c1.862793,0,3.4775391-0.5625,4.8422852-1.6904297c1.3652344-1.1259766,2.0478516-2.7949219,2.0478516-5.0048828
		c0-1.3427734-0.2827148-2.4697266-0.8452148-3.3798828c-0.5634766-0.9101562-1.2900391-1.6347656-2.1777344-2.1777344
		c-0.8886719-0.5410156-1.8959961-0.9199219-3.0224609-1.1367188c-1.1269531-0.2167969-2.253418-0.3251953-3.3798828-0.3251953
		c-1.6474609,0-3.5209961,0.1845703-5.6225586,0.5517578c-2.1020508,0.3691406-3.9760742,0.8564453-5.6225586,1.4628906
		l1.1049805-26.3251953h28.2104492v9.3603516h-18.5253906l-0.3896484,7.2802734
		c0.6923828-0.1728516,1.4624023-0.2929688,2.3071289-0.3574219c0.8452148-0.0654297,1.6137695-0.0976562,2.3076172-0.0976562
		c2.2963867,0,4.4628906,0.3037109,6.5,0.9101562c2.0366211,0.6064453,3.8027344,1.5273438,5.2973633,2.7617188
		c1.4951172,1.2353516,2.675293,2.7626953,3.5424805,4.5830078
		C264.1447754,29.390625,264.5783691,31.5136719,264.5783691,33.9404297z"/>
	<path class="st0" d="M313.0031738,26.0097656c0,3.25-0.3251953,6.3486328-0.9750977,9.2949219
		c-0.6499023,2.9482422-1.6899414,5.5371094-3.1201172,7.7675781c-1.4296875,2.2324219-3.2822266,4.0087891-5.5571289,5.3300781
		c-2.2753906,1.3212891-5.0375977,1.9824219-8.2875977,1.9824219s-6.0239258-0.6611328-8.3198242-1.9824219
		c-2.2973633-1.3212891-4.1713867-3.0976562-5.6225586-5.3300781c-1.4526367-2.2304688-2.5024414-4.8193359-3.152832-7.7675781
		c-0.6499023-2.9462891-0.9746094-6.0449219-0.9746094-9.2949219s0.324707-6.3369141,0.9746094-9.2617188
		c0.6503906-2.9257812,1.7001953-5.4814453,3.152832-7.6699219c1.4511719-2.1884766,3.3251953-3.9326172,5.6225586-5.2333984
		c2.2958984-1.2998047,5.0698242-1.9492188,8.3198242-1.9492188s6.012207,0.6494141,8.2875977,1.9492188
		c2.2749023,1.3007812,4.1274414,3.0449219,5.5571289,5.2333984c1.4301758,2.1884766,2.4702148,4.7441406,3.1201172,7.6699219
		C312.6779785,19.6728516,313.0031738,22.7597656,313.0031738,26.0097656z M301.822998,26.0097656
		c0-1.4296875-0.0874023-3.0107422-0.2597656-4.7441406c-0.1738281-1.7333984-0.4985352-3.3476562-0.9750977-4.8427734
		c-0.4775391-1.4951172-1.159668-2.7519531-2.0473633-3.7705078c-0.8886719-1.0175781-2.0473633-1.5273438-3.4775391-1.5273438
		s-2.6000977,0.5097656-3.5102539,1.5273438c-0.909668,1.0185547-1.6147461,2.2753906-2.1123047,3.7705078
		c-0.4985352,1.4951172-0.8349609,3.109375-1.0073242,4.8427734c-0.1738281,1.7333984-0.2602539,3.3144531-0.2602539,4.7441406
		c0,1.4736328,0.0864258,3.0878906,0.2602539,4.8427734c0.1723633,1.7548828,0.5087891,3.3798828,1.0073242,4.875
		c0.4975586,1.4951172,1.2026367,2.7529297,2.1123047,3.7705078c0.9101562,1.0185547,2.0800781,1.5273438,3.5102539,1.5273438
		s2.5888672-0.5087891,3.4775391-1.5273438c0.8876953-1.0175781,1.5698242-2.2753906,2.0473633-3.7705078
		c0.4765625-1.4951172,0.8012695-3.1201172,0.9750977-4.875C301.7355957,29.0976562,301.822998,27.4833984,301.822998,26.0097656z"
		/>
</g>
<g>
	<path class="st0" d="M19.8220215,69.5664062c-0.7646484-0.8056641-1.6738281-1.4306641-2.7280273-1.875
		s-2.2631836-0.6669922-3.6269531-0.6669922c-1.4057617,0-2.6713867,0.2587891-3.7973633,0.7744141
		c-1.1269531,0.515625-2.0825195,1.2128906-2.8676758,2.0888672c-0.7856445,0.8769531-1.3901367,1.8935547-1.8134766,3.0488281
		c-0.4238281,1.1552734-0.6357422,2.3730469-0.6357422,3.6513672c0,1.2802734,0.2119141,2.4970703,0.6357422,3.6523438
		c0.4233398,1.15625,1.027832,2.1669922,1.8134766,3.0332031c0.7851562,0.8671875,1.7407227,1.5576172,2.8676758,2.0742188
		c1.1259766,0.515625,2.3916016,0.7734375,3.7973633,0.7734375c1.2397461,0,2.3764648-0.1347656,3.4101562-0.4033203
		c1.0332031-0.2685547,1.8701172-0.609375,2.5107422-1.0224609v-6.6650391h-5.1147461v-1.984375h7.3466797v9.9150391
		c-1.1987305,0.7246094-2.4907227,1.2636719-3.875,1.6152344c-1.3847656,0.3525391-2.8208008,0.5283203-4.309082,0.5283203
		c-1.6533203,0-3.1826172-0.2890625-4.5878906-0.8671875c-1.4057617-0.5791016-2.6147461-1.3798828-3.6269531-2.4033203
		c-1.0126953-1.0224609-1.8032227-2.2363281-2.371582-3.6425781c-0.5683594-1.4042969-0.8525391-2.9443359-0.8525391-4.6181641
		c0-1.6748047,0.2895508-3.2138672,0.8681641-4.6191406c0.578125-1.4052734,1.3793945-2.6201172,2.4023438-3.6425781
		c1.0229492-1.0234375,2.2319336-1.8242188,3.6269531-2.4023438c1.3950195-0.5791016,2.9086914-0.8681641,4.5415039-0.8681641
		c1.7563477,0,3.2861328,0.2626953,4.5883789,0.7871094c1.3017578,0.5253906,2.4179688,1.2548828,3.3476562,2.1884766
		L19.8220215,69.5664062z"/>
	<path class="st0" d="M29.5559082,87.546875h-2.2319336V65.5986328h6.4477539c1.074707,0,2.0717773,0.1035156,2.9916992,0.3105469
		c0.9194336,0.2060547,1.715332,0.5419922,2.387207,1.0068359c0.6708984,0.4658203,1.1933594,1.0703125,1.5654297,1.8134766
		c0.3720703,0.7441406,0.5576172,1.6542969,0.5576172,2.7285156c0,0.8056641-0.1445312,1.5400391-0.4335938,2.2011719
		c-0.2900391,0.6611328-0.6821289,1.234375-1.1782227,1.7197266c-0.4960938,0.4863281-1.0849609,0.8740234-1.7670898,1.1630859
		c-0.6816406,0.2890625-1.4257812,0.4755859-2.2319336,0.5576172L42.079834,87.546875h-2.7280273L33.276123,77.2861328h-3.7202148
		V87.546875z M29.5559082,75.3642578h3.875c1.7978516,0,3.1821289-0.3261719,4.1538086-0.9765625
		c0.9711914-0.6513672,1.4570312-1.6279297,1.4570312-2.9296875c0-0.7236328-0.1342773-1.3330078-0.402832-1.8291016
		c-0.269043-0.4960938-0.640625-0.8994141-1.1162109-1.2089844s-1.0537109-0.5371094-1.7358398-0.6816406
		s-1.4365234-0.2177734-2.2631836-0.2177734h-3.9677734V75.3642578z"/>
	<path class="st0" d="M45.7375488,87.546875h-2.4487305l9.4858398-21.9482422h2.1699219l9.4243164,21.9482422H61.888916
		l-2.4179688-5.765625H48.1247559L45.7375488,87.546875z M48.9616699,79.7353516h9.671875l-4.8359375-11.65625
		L48.9616699,79.7353516z"/>
	<path class="st0" d="M83.154541,84.2919922h0.0620117V65.5986328h2.2319336V87.546875h-2.7900391L69.8864746,68.6679688h-0.0620117
		V87.546875h-2.2319336V65.5986328h2.7900391L83.154541,84.2919922z"/>
	<path class="st0" d="M98.3137207,87.546875h-2.2319336V67.5830078h-7.347168v-1.984375h16.9257812v1.984375h-7.3466797V87.546875z"
		/>
	<path class="st0" d="M119.5788574,69.1328125c-0.4755859-0.6611328-1.0849609-1.1933594-1.8291016-1.5966797
		c-0.7436523-0.4023438-1.6425781-0.6044922-2.6967773-0.6044922c-0.5375977,0-1.0849609,0.0830078-1.6430664,0.2480469
		c-0.5581055,0.1660156-1.0644531,0.4189453-1.519043,0.7597656s-0.8212891,0.7705078-1.1005859,1.2861328
		c-0.2788086,0.5175781-0.418457,1.1269531-0.418457,1.8291016c0,0.703125,0.1337891,1.2822266,0.4018555,1.7363281
		c0.2675781,0.4550781,0.6230469,0.8417969,1.0664062,1.1621094c0.4433594,0.3212891,0.9482422,0.5839844,1.5151367,0.7910156
		s1.1591797,0.4130859,1.777832,0.6201172c0.762207,0.2480469,1.5292969,0.5166016,2.3027344,0.8056641
		c0.7729492,0.2900391,1.4682617,0.6660156,2.0869141,1.1318359c0.6181641,0.4648438,1.1235352,1.0537109,1.5146484,1.7666016
		c0.3916016,0.7128906,0.5874023,1.6171875,0.5874023,2.7128906s-0.2089844,2.0410156-0.6264648,2.8359375
		c-0.4179688,0.7958984-0.9604492,1.4521484-1.6274414,1.96875c-0.6674805,0.5166016-1.4301758,0.8994141-2.2875977,1.1464844
		c-0.8574219,0.2480469-1.7202148,0.3720703-2.5883789,0.3720703c-0.6616211,0-1.3227539-0.0673828-1.9838867-0.2011719
		c-0.6616211-0.1347656-1.2919922-0.3359375-1.8911133-0.6044922c-0.5996094-0.2685547-1.1577148-0.609375-1.6738281-1.0234375
		c-0.5170898-0.4130859-0.9716797-0.8876953-1.3642578-1.4257812l1.9223633-1.4257812
		c0.4750977,0.7861328,1.1416016,1.4414062,1.9995117,1.96875c0.8569336,0.5263672,1.8647461,0.7900391,3.0224609,0.7900391
		c0.5576172,0,1.1259766-0.0878906,1.7050781-0.2636719c0.578125-0.1748047,1.1000977-0.4433594,1.5654297-0.8056641
		c0.4648438-0.3613281,0.847168-0.8056641,1.1469727-1.3330078c0.2993164-0.5273438,0.4492188-1.1416016,0.4492188-1.8447266
		c0-0.7636719-0.1499023-1.3994141-0.4492188-1.90625c-0.2998047-0.5058594-0.6977539-0.9296875-1.1938477-1.2705078
		c-0.4956055-0.3417969-1.0644531-0.625-1.7045898-0.8525391c-0.6411133-0.2275391-1.3129883-0.4550781-2.0151367-0.6826172
		c-0.7236328-0.2265625-1.4365234-0.4853516-2.1391602-0.7744141s-1.3330078-0.6669922-1.8911133-1.1318359
		c-0.5576172-0.4648438-1.0073242-1.0380859-1.3481445-1.7207031c-0.3413086-0.6816406-0.5117188-1.5185547-0.5117188-2.5107422
		c0-1.0537109,0.2119141-1.9628906,0.6357422-2.7285156c0.4233398-0.7636719,0.9765625-1.3945312,1.6582031-1.890625
		c0.6821289-0.4960938,1.4365234-0.8574219,2.2631836-1.0849609c0.8261719-0.2275391,1.6430664-0.3408203,2.4487305-0.3408203
		c1.4882812,0,2.7592773,0.2636719,3.8129883,0.7900391c1.0541992,0.5273438,1.8496094,1.1523438,2.387207,1.8759766
		L119.5788574,69.1328125z"/>
	<path class="st0" d="M152.6560059,83.9814453c-0.3720703,0.5585938-0.8217773,1.0859375-1.3486328,1.5830078
		s-1.1367188,0.9345703-1.8291016,1.3125s-1.4570312,0.6767578-2.2939453,0.8974609
		c-0.8369141,0.2197266-1.7514648,0.3300781-2.7436523,0.3300781c-1.6533203,0-3.1826172-0.2890625-4.5878906-0.8671875
		c-1.4057617-0.5791016-2.6147461-1.3798828-3.6269531-2.4033203c-1.0126953-1.0224609-1.8032227-2.2363281-2.371582-3.6425781
		c-0.5683594-1.4042969-0.8525391-2.9443359-0.8525391-4.6181641c0-1.6748047,0.2895508-3.2138672,0.8681641-4.6191406
		c0.578125-1.4052734,1.3793945-2.6201172,2.4023438-3.6425781c1.0229492-1.0234375,2.2319336-1.8242188,3.6269531-2.4023438
		c1.3950195-0.5791016,2.9086914-0.8681641,4.5415039-0.8681641c0.8061523,0,1.5966797,0.0839844,2.371582,0.2519531
		s1.503418,0.4042969,2.1855469,0.7080078c0.6821289,0.3046875,1.3022461,0.6708984,1.8598633,1.0966797
		c0.5581055,0.4267578,1.0234375,0.9091797,1.3950195,1.4462891l-1.8598633,1.3642578
		c-0.2275391-0.3515625-0.5322266-0.703125-0.9145508-1.0546875c-0.3823242-0.3505859-0.8320312-0.6611328-1.3486328-0.9296875
		s-1.0800781-0.4853516-1.6894531-0.6513672c-0.6098633-0.1650391-1.2661133-0.2480469-1.9682617-0.2480469
		c-1.4262695,0-2.7021484,0.2578125-3.8286133,0.7734375c-1.1264648,0.5146484-2.0820312,1.2099609-2.8676758,2.0849609
		c-0.7856445,0.8759766-1.3847656,1.890625-1.7978516,3.0439453c-0.4135742,1.1542969-0.6201172,2.3691406-0.6201172,3.6464844
		s0.2119141,2.4921875,0.6357422,3.6464844c0.4233398,1.1533203,1.027832,2.1679688,1.8134766,3.0429688
		c0.7851562,0.8759766,1.7407227,1.5703125,2.8676758,2.0859375c1.1259766,0.5146484,2.3916016,0.7724609,3.7973633,0.7724609
		c1.2602539,0,2.4589844-0.2587891,3.5957031-0.7753906s2.0874023-1.3427734,2.8520508-2.4794922L152.6560059,83.9814453z"/>
	<path class="st0" d="M156.4997559,65.5986328h2.2319336v9.5175781h11.9658203v-9.5175781h2.2324219V87.546875h-2.2324219
		V77.1621094h-11.9658203V87.546875h-2.2319336V65.5986328z"/>
	<path class="st0" d="M178.6018066,87.546875h-2.4487305l9.4858398-21.9482422h2.1699219l9.4243164,21.9482422h-2.4799805
		l-2.4179688-5.765625h-11.3461914L178.6018066,87.546875z M181.8259277,79.7353516h9.671875l-4.8359375-11.65625
		L181.8259277,79.7353516z"/>
	<path class="st0" d="M202.689209,85.5625h10.2299805v1.984375h-12.4619141V65.5986328h2.2319336V85.5625z"/>
	<path class="st0" d="M218.4987793,85.5625h10.2299805v1.984375h-12.4619141V65.5986328h2.2319336V85.5625z"/>
	<path class="st0" d="M234.3088379,85.5625h11.7490234v1.984375h-13.980957V65.5986328h13.6088867v1.984375h-11.3769531v7.5332031
		h10.6328125v1.9833984h-10.6328125V85.5625z"/>
	<path class="st0" d="M265.9904785,84.2919922h0.0620117V65.5986328h2.2319336V87.546875h-2.7900391l-12.7719727-18.8789062
		h-0.0620117V87.546875h-2.2319336V65.5986328h2.7900391L265.9904785,84.2919922z"/>
	<path class="st0" d="M290.7595215,69.5664062c-0.7646484-0.8056641-1.6738281-1.4306641-2.7280273-1.875
		s-2.2631836-0.6669922-3.6269531-0.6669922c-1.4057617,0-2.6713867,0.2587891-3.7973633,0.7744141
		c-1.1269531,0.515625-2.0825195,1.2128906-2.8676758,2.0888672c-0.7856445,0.8769531-1.3901367,1.8935547-1.8134766,3.0488281
		c-0.4238281,1.1552734-0.6357422,2.3730469-0.6357422,3.6513672c0,1.2802734,0.2119141,2.4970703,0.6357422,3.6523438
		c0.4233398,1.15625,1.027832,2.1669922,1.8134766,3.0332031c0.7851562,0.8671875,1.7407227,1.5576172,2.8676758,2.0742188
		c1.1259766,0.515625,2.3916016,0.7734375,3.7973633,0.7734375c1.2397461,0,2.3764648-0.1347656,3.4101562-0.4033203
		c1.0332031-0.2685547,1.8701172-0.609375,2.5107422-1.0224609v-6.6650391h-5.1147461v-1.984375h7.3466797v9.9150391
		c-1.1987305,0.7246094-2.4907227,1.2636719-3.875,1.6152344c-1.3847656,0.3525391-2.8208008,0.5283203-4.309082,0.5283203
		c-1.6533203,0-3.1826172-0.2890625-4.5878906-0.8671875c-1.4057617-0.5791016-2.6147461-1.3798828-3.6269531-2.4033203
		c-1.0126953-1.0224609-1.8032227-2.2363281-2.371582-3.6425781c-0.5683594-1.4042969-0.8525391-2.9443359-0.8525391-4.6181641
		c0-1.6748047,0.2895508-3.2138672,0.8681641-4.6191406c0.578125-1.4052734,1.3793945-2.6201172,2.4023438-3.6425781
		c1.0229492-1.0234375,2.2319336-1.8242188,3.6269531-2.4023438c1.3950195-0.5791016,2.9086914-0.8681641,4.5415039-0.8681641
		c1.7563477,0,3.2861328,0.2626953,4.5883789,0.7871094c1.3017578,0.5253906,2.4179688,1.2548828,3.3476562,2.1884766
		L290.7595215,69.5664062z"/>
	<path class="st0" d="M300.4929199,85.5625h11.7485352v1.984375h-13.9804688V65.5986328h13.609375v1.984375h-11.3774414v7.5332031
		h10.6333008v1.9833984h-10.6333008V85.5625z"/>
</g>
</svg>
