<?xml version="1.0" encoding="utf-8"?>
<!-- Generator: Adobe Illustrator 23.0.4, SVG Export Plug-In . SVG Version: 6.00 Build 0)  -->
<svg version="1.1" xmlns="http://www.w3.org/2000/svg" xmlns:xlink="http://www.w3.org/1999/xlink" x="0px" y="0px"
	 viewBox="0 0 165 165" style="enable-background:new 0 0 165 165;" xml:space="preserve">
<style type="text/css">
	.st0{display:none;}
	.st1{display:inline;}
	.st2{fill:hsl(334,  86%,  57%);}
	.st3{fill-rule:evenodd;clip-rule:evenodd;fill:hsl(334,  86%,  57%);}
	.st4{display:inline;fill:hsl(334,  86%,  57%);}
</style>
<g id="Layer_1" class="st0">
	<g class="st1">
		<path class="st2" d="M82.4993668,35.6233597c-28.8752861,0-40.4626694,22.3157845-40.4626694,38.0099564
			c0,22.9245224,17.9552116,39.8450623,22.0708694,57.6281128h36.7835999
			c4.1174316-17.7830505,22.0708618-34.7035904,22.0708618-57.6281128
			C122.9620438,57.9391441,111.3764343,35.6233597,82.4993668,35.6233597z"/>
		<path class="st2" d="M64.1075668,148.4517212c0,5.3260498,2.0942154,7.4202576,7.4202576,7.4202576h0.663765h0.0922775
			l0.7276535,2.1847382c1.1074524,3.329422,2.4633636,4.307312,5.9720612,4.307312h7.0333557
			c3.5104752,0,4.8628387-0.97789,5.9720612-4.3073273l0.7258759-2.1847382h0.0922852h0.665535
			c5.3278122,0,7.4184799-2.0942078,7.4184799-7.4202576v-11.0939789H64.1075668V148.4517212z"/>
		<path class="st2" d="M82.4993668,26.1781063c2.2361908,0,3.6772919-1.4446507,3.6772919-3.6790714V6.3132577
			c0-2.234417-1.4411011-3.6772943-3.6772919-3.6772943c-2.2344131,0-3.6772919,1.4428773-3.6772919,3.67907v16.1857796
			C78.8220749,24.7352295,80.2649536,26.1781063,82.4993668,26.1781063z"/>
		<path class="st2" d="M115.0004883,35.8718262c1.7641144,1.373661,3.7891083,1.1251945,5.1645508-0.6335907l9.9634705-12.7551746
			c1.3772125-1.7605572,1.1287537-3.7891045-0.6318054-5.1627655c-1.7605591-1.3772116-3.7891159-1.128746-5.1645508,0.6335888
			l-9.9617081,12.753397C112.9896851,32.4696159,113.2416992,34.4963875,115.0004883,35.8718262z"/>
		<path class="st2" d="M155.5430145,58.3153954c-0.5430756-2.1687508-2.291214-3.22118-4.4599609-2.6798782l-15.7065887,3.9168892
			c-2.1687622,0.5413017-3.2194214,2.2894363-2.6798859,4.4581909c0.5412903,2.1705246,2.2911987,3.2194061,4.4599609,2.6798782
			l15.7048187-3.9151154C155.0318909,62.2340584,156.0843201,60.4841499,155.5430145,58.3153954z"/>
		<path class="st2" d="M147.7341003,101.0994492l-14.7855072-6.5825729
			c-2.0409698-0.9086761-3.948822-0.1756973-4.8557281,1.8670425c-0.9086761,2.0427399-0.177475,3.947052,1.8652802,4.8575058
			l14.7837219,6.5790253c2.0409698,0.9122238,3.948822,0.179245,4.8557281-1.8634949
			C150.5080261,103.9177628,149.7750549,102.011673,147.7341003,101.0994492z"/>
		<path class="st2" d="M44.8372612,35.2382393c1.3754387,1.7605591,3.4022102,2.0072517,5.1627693,0.6335907
			c1.7605591-1.3772163,2.0090218-3.4022102,0.6335831-5.1645432l-9.9652557-12.7533989
			c-1.3754349-1.7605572-3.4022064-2.0090237-5.1627655-0.6335888c-1.7605591,1.3754368-2.0072517,3.4022083-0.6318169,5.1627655
			L44.8372612,35.2382393z"/>
		<path class="st2" d="M32.3003845,64.0123596c0.5413017-2.1705208-0.5111294-3.9186592-2.679882-4.4599609l-15.7048187-3.9168892
			c-2.1687527-0.5377502-3.9186621,0.5129089-4.4599619,2.6816597c-0.5377522,2.1687546,0.5111303,3.9168892,2.6816568,4.4581909
			l15.703043,3.9151154C30.0091743,67.2299957,31.7590847,66.1811142,32.3003845,64.0123596z"/>
		<path class="st2" d="M32.0519218,94.5168762l-14.7854977,6.5861206c-2.0427437,0.9068985-2.7739429,2.8147583-1.8634939,4.8539581
			c0.9068995,2.0427399,2.814765,2.773941,4.8557329,1.8670349l14.7854996-6.586113
			c2.0427437-0.9069061,2.773941-2.8147659,1.8634911-4.8539581C35.9989777,94.3429489,34.0946617,93.6117554,32.0519218,94.5168762
			z"/>
	</g>
</g>
<g id="Layer_2" class="st0">
	<g class="st1">
		<path class="st3" d="M82.5,14.3135891c37.6567001,0,68.1864166,30.5297146,68.1864166,68.186409
			S120.1567001,150.6864166,82.5,150.6864166S14.3135891,120.1567001,14.3135891,82.5
			C14.3135891,44.8449936,44.8449936,14.3135891,82.5,14.3135891z M43.9136925,85.4310532
			c-6.1601257-6.1618195,3.205368-15.5273132,9.3671875-9.3671875L72.3674545,95.150444l39.3533554-39.3516655
			c6.1601334-6.1601295,15.5273209,3.2053642,9.3671875,9.3671837l-44.0369492,44.0352631
			c-2.5856247,2.5856247-6.7815552,2.5856247-9.3671875,0L43.9136925,85.4310532z"/>
	</g>
</g>
<g id="Layer_3" class="st0">
	<path class="st4" d="M128.2411804,22.4028625h-6.930481v14.0997124c0,5.7785683-4.8513336,10.6325722-10.6267395,10.6325722
		H54.3160286c-5.7754021,0-10.6267357-4.8539963-10.6267357-10.6325722V22.4028625h-6.930481
		c-4.8513393,0-8.7786102,3.92943-8.7786102,8.7834263v111.8731308c0,4.8539886,3.9272747,8.783432,8.7786102,8.783432h91.4823685
		c4.8513336,0,8.7786255-3.9294128,8.7786255-8.783432V31.1862888
		C137.0197754,26.3322926,133.092514,22.4028625,128.2411804,22.4028625z M112.0700455,125.0302887h-59.14011
		c-1.8481255,0-3.4652405-1.6179962-3.4652405-3.4671478c0-1.849144,1.617115-3.4671402,3.4652405-3.4671402h59.3711357
		c1.8481216,0,3.4652405,1.6179962,3.4652405,3.4671402C115.7663116,123.4122772,114.1491928,125.0302887,112.0700455,125.0302887z
		 M112.0700455,97.9865723h-59.14011c-1.8481255,0-3.4652405-1.6180038-3.4652405-3.4671402
		c0-1.849144,1.617115-3.4671478,3.4652405-3.4671478h59.3711357c1.8481216,0,3.4652405,1.6180038,3.4652405,3.4671478
		C115.7663116,96.5997086,114.1491928,97.9865723,112.0700455,97.9865723z M112.0700455,71.173996h-59.14011
		c-1.8481255,0-3.4652405-1.6180038-3.4652405-3.4671402c0-1.849144,1.617115-3.4671402,3.4652405-3.4671402h59.3711357
		c1.8481216,0,3.4652405,1.6179962,3.4652405,3.4671402C115.7663116,69.5560074,114.1491928,71.173996,112.0700455,71.173996z
		 M50.8507881,36.5025749V16.6242905c0-1.8491402,1.617115-3.4671421,3.4652405-3.4671421h56.3679161
		c1.8481293,0,3.4652405,1.6180019,3.4652405,3.4671421v19.8782845c0,1.8491402-1.6171112,3.467144-3.4652405,3.467144H54.3160286
		C52.4679031,40.2008629,50.8507881,38.582859,50.8507881,36.5025749z"/>
</g>
<g id="Layer_4" class="st0">
	<g class="st1">
		<path class="st2" d="M120.219574,18.6939392L42.2446632,44.3686028v59.5905724l6.656395,2.2188034l4.7545662,22.187973
			c0.3169708,1.5848694,1.5848541,2.8527527,3.1697121,3.4866791l40.2553291,14.5806732
			c0.6339493,0.3169708,0.9509125,0.3169708,1.5848618,0.3169708c1.901825,0,3.8036499-1.2678986,4.4375916-3.1697083
			l6.3394318-17.7503891l11.0939865,3.4866867c6.0224609,1.9018097,12.3618851-2.5357742,12.3618851-9.1921768V27.5691299
			C132.8984222,21.2297077,126.5589981,16.7921104,120.219574,18.6939392z M95.4958191,135.6562958l-33.281971-12.0449066
			l-3.1697121-14.2637024l40.8892746,13.3127899L95.4958191,135.6562958z"/>
		<path class="st2" d="M139.8717804,53.2437935v41.5232277c10.4600372-0.9509125,18.7012939-9.8261108,18.7012939-20.6031265
			S150.3318329,54.1947098,139.8717804,53.2437935z"/>
		<path class="st2" d="M6.4269228,53.8777351v40.5723076c0,5.3885117,4.1206245,9.5091324,9.5091343,9.5091324h19.3352394
			V44.3686028H15.9360571C10.5475473,44.3686028,6.4269228,48.4892273,6.4269228,53.8777351z"/>
	</g>
</g>
<g id="Layer_5" class="st0">
	<g class="st1">
		<path class="st2" d="M156.3053741,140.0179291l-14.0397034-35.0992737
			c-0.6239929-1.559967-2.0279694-2.4959488-3.743927-2.4959488h-24.0235062v16.0676727h11.0757675
			c0.4679947,0,0.9359741,0.3119888,1.0919724,0.7799835l1.7159653,6.8638611
			c0.1559906,0.6239853-0.3119965,1.4039688-1.0919724,1.4039688H41.8037415c-0.7799835,0-1.2479744-0.6239853-1.09198-1.4039688
			l1.7159653-6.8638611c0.1559982-0.4679947,0.6239891-0.7799835,1.09198-0.7799835h10.9197731V102.422699H30.4159794
			c-1.7159653,0-3.119936,0.9359818-3.7439232,2.4959564l-14.0397081,35.0992737
			c-1.0919771,2.6519318,0.9359798,5.6158752,3.7439222,5.6158752h136.1851807
			C155.3693848,145.4778137,157.3973541,142.6698608,156.3053741,140.0179291z"/>
		<path class="st2" d="M27.7640324,68.1034088c4.2119141,1.8719635,47.5790176,20.435585,47.5790176,20.435585
			c4.2119141,1.7159576,9.0478134-0.1559982,10.7637787-4.3679123s-0.1559906-9.0478058-4.3679047-10.7637787L65.671257,66.5434418
			c-3.587925-1.559967-5.6158829-4.6799011-5.9278793-8.1118317c-0.3119926-2.6519432,1.7159653-4.9918976,4.2119141-4.9918976l0,0
			h39.6231842c-1.4039764-2.3399506-3.2759323-4.9918976-5.7718811-7.9558334
			c-7.3318481-8.7358208-15.7556763-14.6636963-15.7556763-14.6636963
			c-7.7998505-5.7718773-40.0911789-5.4598846-40.0911789-5.4598846l-7.6438408-5.1478939
			c-1.7159653-1.2479744-4.0559177-1.0919762-5.6158848,0.3119926L9.6684084,38.9320183
			c-1.559968,1.559967-1.7159653,4.0559158-0.3119936,5.9278755c2.6519451,3.2759323,6.8638573,8.8918152,9.3598061,14.3516998
			C20.5881824,63.4235077,26.3600616,67.4794312,27.7640324,68.1034088z"/>
		<path class="st2" d="M68.3231964,60.7715645l16.0676651,6.8638573c3.5879211,1.559967,6.2398682,4.3679123,7.7998352,7.9558334
			c0.1559982,0.4679871,0.4679947,1.09198,0.4679947,1.559967c1.0919724,4.2119141,0.3119888,8.5798264-2.18396,12.3237457
			c-2.3399506,3.2759323-5.9278793,5.303894-9.9837952,5.7718811c-2.651947,0.3119965-5.1478958,0-7.4878464-1.0919724
			l-12.3237381-5.1478958v33.8513031h47.4230194V63.111515c0-1.09198-0.4679947-2.0279579-1.2479782-2.651947
			c-0.6239929-0.4679909-1.4039764-0.7799835-2.18396-0.7799835H66.91922
			C67.2312164,60.1475792,67.6992035,60.4595757,68.3231964,60.7715645z"/>
	</g>
</g>
<g id="Layer_6">
	<path class="st2" d="M105.1037216,59.8955421c0,12.4836922-10.1200333,22.6037254-22.6037216,22.6037254
		S59.8962784,72.3792343,59.8962784,59.8955421S70.016304,37.2918243,82.5,37.2918243
		S105.1037216,47.4118538,105.1037216,59.8955421L105.1037216,59.8955421z M135.7443237,49.8494453
		c2.5914307,2.7465973,4.1837158,6.2850113,4.5207367,10.0460968c-0.3370209,3.7610893-1.929306,7.2995033-4.5207367,10.0461006
		c-0.9350739,1.0591507-1.7055206,2.2529144-2.2854919,3.5412445c-0.158905,1.4750519-0.0911407,2.9657364,0.2009277,4.4202881
		c0.8366699,3.6252518,0.4389191,7.4260788-1.130188,10.7995605c-2.1535492,3.0846481-5.2868271,5.3505173-8.8908005,6.4295044
		c-1.368248,0.4763489-2.6620026,1.1443634-3.8426285,1.984108c-0.8397369,1.1806183-1.5077515,2.4743805-1.984108,3.8426285
		c-1.0789871,3.6039734-3.3448486,6.7372437-6.4295044,8.8908005c-3.3734818,1.5690994-7.1743011,1.9668579-10.7995529,1.130188
		c-1.4545517-0.2920685-2.9452362-0.3598251-4.4202805-0.2009277c-1.3141861,0.6064072-2.5326157,1.4017715-3.6166,2.3608246
		c-2.7465973,2.5914383-6.2850113,4.1837234-10.0460968,4.5207443c-3.7610855-0.3370209-7.2994995-1.929306-10.0460968-4.5207443
		c-1.0591507-0.9350662-2.2529221-1.705513-3.5412521-2.2854843c-1.4750519-0.158905-2.9657288-0.0911407-4.4202805,0.2009277
		c-3.6243935,0.8504486-7.4297676,0.4522171-10.7995605-1.130188c-3.0846481-2.1535492-5.3505135-5.2868271-6.4295006-8.8908005
		c-0.4763489-1.368248-1.144371-2.6620102-1.984108-3.8426285c-1.1806145-0.8397369-2.4743805-1.5077515-3.8426323-1.984108
		c-3.6039734-1.0789871-6.7372398-3.3448563-8.8907967-6.4295044c-1.5690918-3.3734818-1.9668541-7.1743088-1.1301842-10.7995529
		c0.2920666-1.4545517,0.3598251-2.9452362,0.200922-4.4202881c-0.5964012-1.3196945-1.3926964-2.5395584-2.3608303-3.6165924
		c-2.5914383-2.7465973-4.1837254-6.2850113-4.5207443-10.0461006c0.337019-3.7610855,1.929306-7.2994995,4.5207443-10.0460968
		c0.9350739-1.0591507,1.7055206-2.2529182,2.2854881-3.5412483c0.1589031-1.4750519,0.0911427-2.9657326-0.200922-4.4202843
		c-0.8366718-3.6252518-0.4389114-7.4260712,1.1301861-10.7995567c2.153553-3.0846462,5.2868233-5.3505154,8.8907967-6.4295025
		c1.3682518-0.4763489,2.6620102-1.144371,3.8426323-1.9841042c0.8397331-1.1806202,1.5077591-2.4743843,1.9841042-3.8426323
		c1.0637932-3.6316385,3.3311119-6.7934866,6.4295044-8.9661417c3.3734818-1.5690956,7.174305-1.9668565,10.7995529-1.1301861
		c1.4545059,0.2924585,2.9452438,0.36022,4.4202805,0.2009211c1.3095779-0.5831842,2.5277634-1.3530078,3.6166-2.2854867
		C75.2005005,4.0597844,78.7389145,2.4674973,82.5,2.1304798c3.7610855,0.3370178,7.2994995,1.9293041,10.0460968,4.5207438
		c1.0591507,0.9350715,2.2529221,1.7055182,3.5412521,2.2854877c1.4750443,0.1589022,2.9657211,0.0911436,4.4202805-0.200922
		c3.6252518-0.8366699,7.4260712-0.4389095,10.7995529,1.1301861c3.0846481,2.153554,5.3505173,5.2868223,6.4295044,8.8907957
		c0.4763489,1.3682499,1.1443634,2.662014,1.984108,3.8426323c1.1806183,0.839735,2.4743805,1.5077572,3.8426285,1.9841042
		c3.6039734,1.078989,6.7372513,3.3448563,8.8908005,6.4295044c1.5690918,3.3734818,1.9668579,7.174305,1.130188,10.7995567
		c-0.2920685,1.4545479-0.3598328,2.9452286-0.2009277,4.4202805
		C133.9798889,47.5525475,134.7761841,48.7724075,135.7443237,49.8494453z M115.1498184,59.8955421
		c0-18.0319977-14.6178207-32.6498184-32.6498184-32.6498184S49.8501816,41.8635445,49.8501816,59.8955421
		S64.4680023,92.5453644,82.5,92.5453644S115.1498184,77.927536,115.1498184,59.8955421z M105.1037216,116.4550781
		L105.1037216,116.4550781c-1.6819534-0.0311279-3.3599854-0.1737671-5.0230484-0.4269638
		c-0.7534561,0-1.8083038-0.2260361-2.511528-0.251152c-0.7032242-0.0251083-1.3311005,0.9543839-1.8082962,1.3311081
		c-3.6511307,3.3226318-8.3323975,5.2908936-13.260849,5.5755844c-4.8989944-0.2946472-9.5506516-2.2527695-13.1855011-5.5504684
		l-1.8836441-1.3562241c-0.7283478,0-1.657608,0.1506958-2.511528,0.251152
		c-1.7296143,0.2607346-3.4749718,0.4033813-5.2239685,0.4269485c-3.0739174,0.0811462-6.1121635-0.6740723-8.7903366-2.1850204
		c-0.42696-0.2511444-0.828804-0.552536-1.230648-0.828804v44.4037628c0.0107651,1.7837372,0.966713,3.4279633,2.511528,4.3198242
		c1.5541382,0.8972931,3.4689102,0.8972931,5.0230484,0l25.1152458-13.7631531l25.115242,13.7631531
		c0.8118591,0.4823608,1.7432556,0.7260895,2.6873322,0.7032166c0.884491-0.0091858,1.7508698-0.25177,2.5115204-0.7032166
		c1.5448151-0.891861,2.5007629-2.536087,2.511528-4.3198242V113.441246c-0.4018402,0.276268-0.803688,0.577652-1.2306519,0.828804
		C111.234108,115.7866135,108.1862488,116.5420685,105.1037216,116.4550781z"/>
</g>
</svg>
