<?xml version="1.0" encoding="utf-8"?>
<!-- Generator: Adobe Illustrator 25.1.0, SVG Export Plug-In . SVG Version: 6.00 Build 0)  -->
<svg version="1.1" xmlns="http://www.w3.org/2000/svg" xmlns:xlink="http://www.w3.org/1999/xlink" x="0px" y="0px"
	 viewBox="0 0 42 42" enable-background="new 0 0 42 42" xml:space="preserve">
<g id="Layer_1" display="none">
	<g display="inline">
		<path fill="none" stroke="#A0AFB5" stroke-linecap="round" stroke-miterlimit="10" d="M18.2715588,38.8333778
			c1.8659-0.0005684,3.7318039-0.001133,5.597702-0.0016823c-0.0826588,1.284462-0.7852554,1.9067154-2.0553608,1.9040794
			c-0.7089176-0.0014687-1.4354649,0.0680542-2.1224079-0.061779
			C18.7399731,40.4941559,18.3306389,39.7678261,18.2715588,38.8333778z"/>
		<path fill="#FFCE4B" d="M32.2003136,10.4505301c-1.164917-6.4237061-7.4996948-10.8496094-13.5700073-9.4415283
			C10.093503,2.9892261,6.5541959,13.124114,11.8410616,20.4765911c1.4855957,2.06604,2.3861084,4.352417,2.7244263,6.8674316
			c0.8475342,0.7184448,1.7397451,0.6293945,2.6533194,0.1439209c0.0777588-0.0773315,1.3198242,0.0476074,1.8969727-0.0731812
			c0.4514771-0.0945435,0.8064575,0.0554199,1.2356567,0.1935425c0.5438232,0.1750488,1.100769,0.317749,1.6704712,0.3742065
			c0.9030762,0.0894775,1.8544312-0.0723267,2.5962524-0.5861206c0.0350342,0.0389404,0.0656738,0.0800171,0.1072998,0.1156006
			c0.9092407,0.4648438,1.7949219,0.5241699,2.6389771-0.1518555c0.3739014-2.541748,1.163208-4.9247437,2.6660156-7.0410767
			C32.1477013,17.337553,32.8541222,14.0561209,32.2003136,10.4505301z"/>
		<path opacity="0.5" fill="#FFCE4B" d="M31.0696239,10.8431168c-1.0484257-5.7813354-6.7497253-9.7646484-12.213007-8.4973755
			c-7.6831226,1.782202-10.8684988,10.9036016-6.1103201,17.5208321c1.3370361,1.859436,2.6143141,6.0065403,2.9188004,8.270052
			c0.5882292,0.4986362,7.0270491,0.8280334,9.999999,0c0.8821869-0.2457085,0.8784046-1.9356346,1.0522385-2.0748615
			c0.3365116-2.2875729,1.0468884-4.4322701,2.3994141-6.3369694C31.022274,17.0414391,31.6580524,14.0881491,31.0696239,10.8431168
			z"/>
		<path fill="none" stroke="#FF9E42" stroke-linecap="round" stroke-miterlimit="10" d="M19.8868847,27.2691669
			c-0.6016674-3.0684395-3.534668-12.2630424-3.6282291-12.4477911c-0.0935593-0.1847496,0.8294582,0.3514872,0.8294582,0.3514872
			c0.2033081,0.086153,0.4395847,0.030797,0.5788765-0.1405344c0.3291435-0.4048491,0.1861782-0.4679365,0.8421421-0.9318199
			c0.6559639-0.4638824,0.5469303,0.3112679,0.8607311,0.6072826c0.2111931,0.1992216,0.5461693,0.175375,0.7294216-0.0498133
			c0,0,0.4765472-0.8739491,0.7711792-0.9476509c0.294632-0.0737009,0.5648003,1.5489845,0.9297161,1.2376413
			c0.3649158-0.3113422,0.8168259-0.6903086,1.0908718-1.0008259c0.274044-0.3105164,0.4230595,0.3848858,0.7146912,0.7301254
			c0.1867695,0.2211008,0.5116272,0.2295866,0.7278957,0.0372419c0.4376774-0.3892584,1.0769424-1.875845,1.4542007-0.9768648
			c0.3772564,0.8989811-2.7380238,9.973115-3.6070347,14.4596739"/>
		<g>
			<path fill="#A0AFB5" d="M14.5335188,33.4835472c-0.6976528-0.0750198-0.9725227-0.5899315-1.0008326-1.1654587
				c-0.0298548-0.6069565,0.438858-0.8891487,1.0063353-0.982233c0.4195471-0.4313145,0.9664946-0.3895512,1.4955034-0.3907795
				c3.2792912-0.0076256,6.5585957-0.0074825,9.8378887-0.0001659c0.5295773,0.0011806,1.0755291-0.0371513,1.4961987,0.3909264
				c1.1395645,0.6553421,1.1401405,1.3647594,0.0017471,2.1467838c-0.368536,0.4138947-0.8601513,0.4008675-1.3541412,0.4005928
				c-3.3761158-0.0018463-6.7522335-0.0017662-10.1283503-0.0000877
				C15.3942184,33.8833694,14.9020147,33.8982048,14.5335188,33.4835472z"/>
			<path fill="#A0AFB5" d="M27.361517,34.2598915c1.2277565,1.1253319,1.1795712,1.513073-0.2693062,2.1671982
				c-0.59865,0.4440804-1.2752991,0.5567741-2.0096855,0.5529251c-2.7534161-0.0144424-5.5070496-0.0143433-8.2604694-0.0000763
				c-0.734129,0.0038033-1.4113712-0.1070747-2.0097313-0.5523453c-0.4657516-0.3165894-1.3084021-0.1849213-1.3218784-1.0351372
				c-0.010623-0.6704063,0.4095964-1.0114021,1.0451946-1.114254c0.3684578-0.4140663,0.8606367-0.3967476,1.3529959-0.3965416
				c3.3706541,0.0013885,6.7413149,0.0009575,10.1119699,0.0005684
				C26.4904404,33.8821716,26.986063,33.8522339,27.361517,34.2598915z"/>
			<path fill="#A0AFB5" d="M27.3563118,28.6585655c1.1464634,0.6342716,1.1513863,1.3219948,0.0154247,2.1536312
				c-0.3375111,0.2821541-0.7460327,0.2568359-1.1453495,0.2574043c-3.5172997,0.0049915-7.0345993,0.0049877-10.551898,0.0000191
				c-0.3994007-0.0005627-0.8077946,0.0241833-1.1452961-0.257782c-1.1317768-0.8272305-1.1289787-1.511055,0.008811-2.1529942
				c0.4713888-0.5139999,1.0939236-0.5399094,1.7277145-0.5412922c3.1213417-0.0068111,6.2426701-0.0070705,9.364006,0.0002441
				C26.2624493,28.1192799,26.8871555,28.1388016,27.3563118,28.6585655z"/>
		</g>
		<path fill="#BDCCD4" d="M14.8123245,36.4275932c4.0933189-0.0001678,8.1866417-0.0003471,12.2799225-0.0005112
			c-0.5841103,1.4580688-1.7754307,2.1029205-3.22299,2.4046211c-1.8656425,0.8637657-3.7315407,0.8578644-5.5976982,0.0016708
			C16.6909008,38.6457291,15.4468279,37.9745369,14.8123245,36.4275932z"/>
		<path fill="#FFCE4B" d="M27.3563118,28.6585655c-4.2727757,0.000124-8.545557,0.000246-12.8183203,0.0003223
			c0.0090666-0.4383392,0.0181227-0.8766365,0.0273142-1.3148899c0.8773718-0.0158844,11.9124222-0.004425,12.799139,0.0160999
			C27.3617077,27.7929707,27.3590126,28.225769,27.3563118,28.6585655z"/>
		<path fill="#BDCCD4" d="M27.361517,34.2598915c-4.275301,0.0061378-8.5505981,0.0122719-12.8258886,0.0183601
			c-0.0007048-0.264946-0.0014191-0.5298462-0.0021219-0.7947273c4.278965-0.0002937,8.5579166-0.0006104,12.8368626-0.0009155
			C27.3674107,33.7417068,27.3644657,34.0008011,27.361517,34.2598915z"/>
		<path fill="#BDCCD4" d="M14.5291929,30.8118382c4.2808599,0.0001049,8.561717,0.000206,12.8425608,0.0003357
			c-0.0010548,0.1745949-0.0020924,0.3491688-0.0031338,0.5237026c-4.2765503-0.0000134-8.553093,0.0000114-12.8296156,0.0000095
			C14.5357447,31.1611843,14.5324688,30.9865093,14.5291929,30.8118382z"/>
		<g>
			<path fill="#FFFFFF" d="M30.8906708,9.4600306c0.0655785,0.4557657,0.0214615,0.7857723-0.3638115,0.8528461
				c-0.2952118,0.0513945-0.4725666-0.1853056-0.5596657-0.4646044c-0.0397663-0.127512-0.0981236-0.2494974-0.1340351-0.3779049
				c-0.926609-3.3137331-3.1517677-5.2789526-6.4117928-6.1663785c-0.4089603-0.111326-1.0364685-0.0590348-0.8671455-0.7157965
				c0.1564121-0.6066692,0.704174-0.3823676,1.1278-0.2718699c3.4958839,0.9118609,5.9017258,3.0092676,7.0330715,6.4839916
				C30.7976074,9.0537395,30.852808,9.3160524,30.8906708,9.4600306z"/>
			<path fill="#FFFFFF" d="M31.3508568,11.8117962c-0.0598488,0.3077164-0.2567215,0.4859781-0.5578327,0.4343328
				c-0.2186413-0.0375013-0.4144993-0.2110243-0.3753376-0.4722757c0.044754-0.2985544,0.2640533-0.4884539,0.5570145-0.4443932
				C31.1900978,11.3618555,31.3558846,11.5474863,31.3508568,11.8117962z"/>
		</g>
	</g>
</g>
<g id="Layer_2" display="none">
	<g display="inline">
		<g>
			<path fill="none" stroke="#BDCCD4" stroke-linecap="round" stroke-miterlimit="10" d="M18.0485592,33.0311203
				c-0.0231934,0-0.0459232,0-0.0686512,0c-1.6773453-0.0204124-3.2526379-0.7737312-4.3218517-2.0688496
				c-0.5802975-0.7022934-1.4096918-1.6272449-2.2877932-2.6069336c-1.357275-1.513134-2.7604733-3.0791492-3.6297603-4.2583008
				c-1.4008789-1.9009266-0.9954591-4.5774403,0.9054685-5.9783192c1.8995361-1.3990231,4.5760498-0.9954586,5.9773932,0.905468
				c0.6262207,0.8498058,1.9473143,2.3239746,3.1130133,3.6237316c0.1108627,0.1233883,0.2208004,0.2467766,0.3298092,0.368309
				c0.9532471-1.0594711,2.0456543-2.2636719,3.1705322-3.5031242c2.9539051-3.2563477,7.4070301-8.1649904,8.1468983-9.2105465
				c1.2311039-1.9695807,3.8204117-2.5985842,5.8196793-1.399024c2.0261726,1.2125492,2.684864,3.8380375,1.471386,5.8632812
				c-0.6874504,1.1494627-2.7702141,3.5077639-9.1057129,10.4908209c-2.1143074,2.3304691-4.1112556,4.5319824-5.2147942,5.8057613
				C21.267334,32.3167648,19.7017822,33.0311203,18.0485592,33.0311203z"/>
		</g>
		<path fill="none" stroke="#4CC6CD" stroke-width="9" stroke-linecap="round" stroke-miterlimit="10" d="M8.6078033,20.3157196
			c1.3330526,1.8095093,4.4422493,5.053751,6.0758991,7.0316315c0.5903101,0.714695,1.6757793,0.7252903,2.2827988,0.0247307
			c3.3153896-3.8262806,13.6592674-14.9227562,14.6147823-16.5187721"/>
		<path opacity="0.5" fill="none" stroke="#4CC6CD" stroke-width="7" stroke-linecap="round" stroke-miterlimit="10" d="
			M8.6078033,20.3157196c1.3330526,1.8095093,4.4422493,5.053751,6.0758991,7.0316315
			c0.5903101,0.714695,1.6757793,0.7252903,2.2827988,0.0247307c3.3153896-3.8262806,13.6592674-14.9227562,14.6147823-16.5187721"
			/>
		<path fill="none" stroke="#BDCCD4" stroke-width="1.5" stroke-linecap="round" stroke-miterlimit="10" d="M8.6078033,20.3157196
			c1.3330526,1.8095093,4.4422493,5.053751,6.0758991,7.0316315c0.5903101,0.714695,1.6757793,0.7252903,2.2827988,0.0247307
			c3.3153896-3.8262806,13.6592674-14.9227562,14.6147823-16.5187721"/>
	</g>
</g>
<g id="Layer_3" display="none">
	<g display="inline">
		<path fill="#FFCE4B" d="M31.497982,38.442215h-21c-1.6568537,0-2.9999995-1.3431473-2.9999995-3v-28
			c0-1.6568542,1.3431458-3,2.9999995-3h21c1.6568527,0,3,1.3431458,3,3v28
			C34.497982,37.0990677,33.1548347,38.442215,31.497982,38.442215z"/>
		<path opacity="0.47" fill="#FFCE4B" d="M30.6479816,36.7422142H11.3479815c-1.3807116,0-2.5-1.1192894-2.5-2.5V8.6422138
			c0-1.3807116,1.1192884-2.5,2.5-2.5h19.2999992c1.3807125,0,2.4999981,1.1192884,2.4999981,2.5v25.6000004
			C33.1479797,35.6229248,32.0286942,36.7422142,30.6479816,36.7422142z"/>
		<path fill="none" stroke="#FFFFFF" stroke-width="0.75" stroke-linecap="round" stroke-miterlimit="10" d="M11.5860033,11.4010658
			c0.2667122-0.3733063,0.5427818-0.7556973,0.9283628-1.0043344c0.385581-0.2486382,0.9115562-0.3357048,1.300189-0.0918655
			c0.1992197,0.1249952,0.3429451,0.3220272,0.5328417,0.4607754c0.8596687,0.6281214,2.1437645-0.1786337,3.1157284,0.2559395
			c0.3414707,0.1526756,0.6121101,0.4489956,0.9708424,0.5549421c0.6531239,0.1928921,1.284317-0.2952147,1.8857079-0.6147556
			c0.7589397-0.4032526,1.7968693-0.4783115,2.4753532-0.0401115c0.3186207,0.2057829,0.7433052,0.2137394,1.056488-0.0002289
			c1.0608044-0.7247477,2.5980148-0.7558441,3.6383572,0.0213423c0.1060104,0.0791941,0.6747742-0.000555,1.6747742-0.000555
			c0.3515148,0-0.4798565,0.1587181,0.7600727-0.4206409"/>
		<path fill="none" stroke="#FFFFFF" stroke-width="0.75" stroke-linecap="round" stroke-miterlimit="10" d="M11.5860033,15.6010656
			c0,0,2.571497-0.7741728,2.7613935-0.6354237c0.8596687,0.6281204,2.1437645-0.1786346,3.1157284,0.2559385
			c0.3414707,0.1526756,0.6121101,0.4489956,0.9708424,0.5549421c0.6531239,0.1928921,1.284317-0.2952137,1.8857079-0.6147556
			c0.7589397-0.4032526,1.7968693-0.4783115,2.4753532-0.0401115c0.3186207,0.2057829,0.7433052,0.2137394,1.056488-0.0002289
			c1.0608044-0.7247477,2.5980148-0.7558432,3.6383572,0.0213423c0.1060104,0.079195,0.215168,0.1687298,0.3468342,0.1819324
			c0.3497601,0.0350723,2.0880127-0.6031284,2.0880127-0.6031284"/>
		<path fill="none" stroke="#FFFFFF" stroke-width="0.75" stroke-linecap="round" stroke-miterlimit="10" d="M29.9247208,18.7648792
			c-0.2667122,0.3733063-2.5701752,0.3160839-2.7600727,0.1773338c-0.8596687-0.6281204-2.1450863,0.6367245-3.1170502,0.2021503
			c-0.3414707-0.1526756-0.6121101-0.4489956-0.9708424-0.5549412c-0.6531219-0.1928921-1.284317,0.2952137-1.8857079,0.6147556
			c-0.7589397,0.4032516-1.7968693,0.4783115-2.4753532,0.0401115c-0.3186207-0.2057819-0.7433033-0.2137394-1.056488,0.0002289
			c-1.0608044,0.7247467-2.5980158,0.7558441-3.6383572-0.0213432c-0.1060104-0.0791931-0.8400497,0.2425766-1.0626316,0.5146427
			c-0.3394051,0.4148598-1.0921841,0.363596-1.3722143-0.0934467"/>
		<path fill="none" stroke="#FFFFFF" stroke-width="0.75" stroke-linecap="round" stroke-miterlimit="10" d="M11.5860033,24.0010662
			c0.2667122-0.3733063,2.571497-0.7741737,2.7613935-0.6354237c0.8596687,0.6281204,2.1437645-0.1786346,3.1157284,0.2559376
			c0.3414707,0.1526756,2.2551594,0.2597294,2.8565502-0.0598125c0.7589397-0.4032536,1.7968693-0.4783115,2.4753532-0.0401115
			c0.3186207,0.2057819,0.7433052,0.2137394,1.056488-0.0002289c1.0608044-0.7247486,2.3752003-0.2799301,3.6383572,0.0213413
			c1.6747742,0.3994446,2.4348469-0.421196,2.4348469-0.421196"/>
		<path fill="none" stroke="#FFFFFF" stroke-width="0.75" stroke-linecap="round" stroke-miterlimit="10" d="M11.5860033,28.2010651
			c0.2667122-0.3733063,2.571497-0.7741718,2.7613935-0.6354237c0.8596687,0.6281223,2.1437645-0.1786346,3.1157284,0.2559395
			c0.3414707,0.1526756,0.6121101,0.4489956,0.9708424,0.5549412c0.6531239,0.1928921,1.284317-0.2952137,1.8857079-0.6147556
			c0.7589397-0.4032516,1.7968693-0.4783115,2.4753532-0.0401115c0.3186207,0.2057838,0.7433052,0.2137394,1.056488-0.0002289
			c1.0608044-0.7247467,2.5980148-0.7558422,3.6383572,0.0213432c0.1060104,0.079195,0.215168,0.1687298,0.3468342,0.1819324
			c0.3497601,0.0350723,0.4932156-0.424509,0.7157974-0.6965733c0.3394051-0.4148617,1.3722153,0.0934448,1.3722153,0.0934448"/>
		<path fill="none" stroke="#FFFFFF" stroke-width="0.75" stroke-linecap="round" stroke-miterlimit="10" d="M11.5860033,32.4010658
			c0.2667122-0.3733063,0.5427818-0.7556973,0.9283628-1.0043354c0.385581-0.2486362,0.9115562-0.3357048,1.300189-0.0918655
			c0.1992197,0.1249962,0.3429451,0.3220272,0.5328417,0.4607773c0.8596687,0.6281223,2.1437645-0.1786346,3.1157284,0.2559376
			c0.3414707,0.1526756,0.6121101,0.4489975,0.9708424,0.5549431c0.6531239,0.1928902,1.284317-0.2952156,1.8857079-0.6147556
			c0.7589397-0.4032516,1.7968693-0.4783115,2.4753532-0.0401115c0.3186207,0.2057819,0.7433052,0.2137394,1.056488-0.0002289
			c1.0608044-0.7247486,2.5980148-0.7558441,3.6383572,0.0213413c0.1060104,0.0791969,0.215168,0.1687317,0.3468342,0.1819344
			c0.3497601,0.0350723,2.0880127-0.6031284,2.0880127-0.6031284"/>
		<path fill="none" stroke="#BDCCD4" stroke-linecap="round" stroke-miterlimit="10" d="M26.497982,6.942214h-11.000001
			c-0.5522842,0-1-0.4477153-1-1v-3c0-0.5522847,0.4477158-1,1-1h11.000001c0.5522842,0,1,0.4477153,1,1v3
			C27.497982,6.4944987,27.0502663,6.942214,26.497982,6.942214z"/>
	</g>
</g>
<g id="Layer_4" display="none">
	<g display="inline">
		<g>
			<path fill="none" stroke="#BDCCD4" stroke-linecap="round" stroke-miterlimit="10" d="M32.7914734,13.5894833
				c-0.3662949,0.0339041-0.7202377,0.1045465-1.0600681,0.2051439l0.9941921,10.7409506
				c0.3525238,0.0365124,0.7134209,0.0409889,1.0797119,0.0070839c3.0246696-0.2799664,5.2496338-2.9589005,4.9696732-5.9835091
				C38.4950142,15.5344849,35.8161392,13.309516,32.7914734,13.5894833z"/>
		</g>
		<path fill="none" stroke="#A0AFB5" stroke-linecap="round" stroke-miterlimit="10" d="M13.4798164,25.6266861
			l-0.1688471,2.8935318c-0.0589876,1.0108776,0.6468477,1.9063435,1.6435413,2.0850983l5.2677374,1.9239731
			c0.7309055,0.1310844,1.4742718-0.1535721,1.9306812-0.7393169l2.3913651-4.1830425"/>
		<path fill="#4CC6CD" d="M2.8130558,19.4182625l0.5124071,5.5358791c0.1151016,1.2435226,1.3290863,2.0785885,2.5315332,1.741375
			l2.5624442-0.7186127c0.3103933-0.0870476,0.637229-0.0977745,0.9526615-0.0312672l23.3458748,4.9223251
			c1.3179703,0.2778873,2.5282478-0.8000927,2.4041023-2.1413078L33.2986107,9.0264997
			c-0.1265106-1.3667717-1.56073-2.2028232-2.8123932-1.6394296L8.4280586,17.315815
			c-0.3189754,0.1435757-0.6700287,0.200983-1.0181231,0.1664886L5.00176,17.2436752
			C3.7509532,17.11973,2.6972079,18.1666794,2.8130558,19.4182625z"/>
		<path opacity="0.5" fill="#4CC6CD" d="M7.6156774,18.9326057L5.597774,18.0123787
			c-1.013134-0.1003494-1.8666468,0.747673-1.7728145,1.7614079l0.4150503,4.484066
			c0.0932355,1.0072918,1.0765119,1.6837044,2.0505352,1.4105186l1.9237771-0.7655296
			C8.1037092,23.5495491,7.6310196,18.9341278,7.6156774,18.9326057z"/>
		<path opacity="0.5" fill="#4CC6CD" d="M8.6532421,24.862215l23.2182274,4.8987656
			c1.1861744,0.2500973,2.275423-0.7200851,2.1636906-1.9271774l-1.6411209-17.7301407
			c-0.1138573-1.2300949-1.4046574-1.9825411-2.5311527-1.4754868L8.1002388,18.8877544L8.6532421,24.862215z"/>
	</g>
</g>
<g id="Layer_5" display="none">
	<g display="inline">
		<path fill="#FF9E42" d="M8.249649,16.381918"/>
		<path fill="#FFCE4B" d="M7.9754353,27.2614822l-6.0070205,4.819149c-0.7367909,0.5910912-0.3188245,1.7800102,0.6257659,1.7800102
			h36.8116226c0.9349136,0,1.3585358-1.1686592,0.6407738-1.7677307l-5.7739563-4.8191471
			c-0.1798019-0.1500702-0.4065742-0.2322712-0.6407738-0.2322712H8.6012011
			C8.3736591,27.0414925,8.1529207,27.1190948,7.9754353,27.2614822z"/>
		<path fill="#FFCE4B" d="M7.9754353,27.2614822l-6.0070205,4.819149c-0.7367909,0.5910912-0.3188245,1.7800102,0.6257659,1.7800102
			h36.8116226c0.9349136,0,1.3585358-1.1686592,0.6407738-1.7677307l-5.7739563-4.8191471
			c-0.1798019-0.1500702-0.4065742-0.2322712-0.6407738-0.2322712H8.6012011
			C8.3736591,27.0414925,8.1529207,27.1190948,7.9754353,27.2614822z"/>
		<polygon opacity="0.5" fill="#FFCE4B" points="2.5943761,32.8606415 8.6012115,28.0413055 33.631485,28.0413055 
			39.405899,32.8606415 		"/>
		
			<line fill="none" stroke="#FF9E42" stroke-width="2" stroke-linecap="round" stroke-miterlimit="10" x1="11.2709265" y1="30.451067" x2="30.9305" y2="30.451067"/>
		<path fill="#BDCCD4" d="M28.249649,30.3606415h-15v-14.999999c0-0.5522852,0.4477158-1,1-1h13c0.5522842,0,1,0.4477148,1,1
			V30.3606415z"/>
		<g>
			<path fill="none" stroke="#FF9E42" stroke-linecap="round" stroke-miterlimit="10" d="M17.7095299,13.6833353
				c-1.0484009,0.0015354-2.0969381-0.0087328-3.1451464,0.0054646c-0.6091805,0.0082502-1.3424721-0.1129341-1.5638762,0.6710157
				c-0.2257671,0.7993946,0.1529465,1.4748144,0.8260078,1.8790817c0.6925154,0.4159508,1.4614944,0.7058468,2.2017002,1.0405273
				c0.4937439,0.2232437,1.0084019,0.4031162,1.4913254,0.6467819c1.0109825,0.5101013,1.3657913,1.3886986,0.9603443,2.2944202
				c-0.4086781,0.9129391-1.3035984,1.2793179-2.3316669,0.8528385c-2.6845055-1.1136246-5.3525362-2.267025-8.0257254-3.4078789
				c-0.6414256-0.2737446-1.2889581-0.536972-1.9131231-0.8465176c-0.9710264-0.4815693-1.665616-1.2467623-2.1488171-2.2135191
				c-0.4352643-0.8708487-0.9752498-1.6757975-1.5877318-2.4308853c-0.5318331-0.6556616-0.4998145-1.2450609,0.1242168-1.8350878
				c1.1561873-1.0931826,2.3027308-2.1972446,3.4291618-3.3209796C6.628335,6.417902,7.2537689,6.3492355,7.8768258,6.8945384
				c0.847918,0.7421041,1.8313422,0.8859258,2.9058366,0.892005c1.1229181,0.0063543,2.2442617,0.154417,3.367918,0.192203
				c3.6033163,0.1211729,5.6690836,2.5424137,7.638133,5.0961637c0.4758053,0.6170959-0.0852547,0.5991192-0.4680748,0.6027203
				C20.1170292,13.6889534,18.9132462,13.6817999,17.7095299,13.6833353z"/>
		</g>
		<g>
			<path fill="none" stroke="#A0AFB5" stroke-linecap="round" stroke-miterlimit="10" d="M27.2839565,12.0245132
				c0.14814-1.4012747,0.4211273-2.7893267,0.8146667-4.1423378"/>
			<path fill="none" stroke="#A0AFB5" stroke-linecap="round" stroke-miterlimit="10" d="M29.1681232,13.3745527
				c1.4385395-1.0812216,2.9902592-2.0117664,4.6215878-2.7715034"/>
			<path fill="none" stroke="#A0AFB5" stroke-linecap="round" stroke-miterlimit="10" d="M30.4066296,15.9686842
				c0,0,3.4191074-0.4892607,5.2912769-0.0950842"/>
		</g>
	</g>
</g>
<g id="Layer_6">
	<g>
		<path fill="none" stroke="#BDCCD4" stroke-linecap="round" stroke-miterlimit="10" d="M27.5737801,26.5211506
			c0-0.4844036-0.4477158-0.8770905-1-0.8770905h-4.4024029h-2.3467903H15.422183c-0.5522842,0-1,0.3926868-1,0.8770905v9.2554302
			c0,0.6160011,0.7049847,1.0400925,1.3601723,0.8182259l4.8554811-2.6442146c0.2317772-0.0784874,0.4885674-0.0784874,0.7203445,0
			l4.8554249,2.6442108c0.6551876,0.2218666,1.3601742-0.2022247,1.3601742-0.8182259V26.5211506z"/>
		<path fill="#4CC6CD" d="M21.5376854,4.4968367l2.2602901-1.4490459c0.4958134-0.3178596,1.1575718-0.1405418,1.4280281,0.3826389
			L26.45895,5.815486c0.1794147,0.3470645,0.5445213,0.5578589,0.9347954,0.5397034l2.6819916-0.1247649
			c0.588316-0.0273681,1.0727577,0.4570732,1.0453892,1.0453892l-0.1247654,2.681993
			c-0.0181541,0.3902731,0.1926403,0.7553797,0.5397034,0.9347935l2.3850555,1.2329464
			c0.5231819,0.2704573,0.7005005,0.9322157,0.3826408,1.4280281l-1.4490471,2.2602921
			c-0.2108574,0.328908-0.2108574,0.7504969,0,1.0794058l1.4490471,2.2602921
			c0.3178596,0.4958134,0.1405411,1.1575718-0.3826408,1.4280281l-2.3850555,1.2329464
			c-0.3470631,0.1794147-0.5578575,0.5445213-0.5397034,0.9347935l0.1247654,2.6819935
			c0.0273685,0.588316-0.4570732,1.0727577-1.0453892,1.0453892l-2.6819916-0.1247654
			c-0.390274-0.0181561-0.7553806,0.1926384-0.9347954,0.5397034l-1.2329464,2.3850574
			c-0.2704563,0.52318-0.9322147,0.7004967-1.4280281,0.382637l-2.2602901-1.4490452
			c-0.3289089-0.2108593-0.7504978-0.2108593-1.0794067,0l-2.2602921,1.4490452
			c-0.4958134,0.3178596-1.1575718,0.140543-1.4280281-0.382637l-1.2329464-2.3850574
			c-0.1794138-0.347065-0.5445204-0.5578594-0.9347944-0.5397034l-2.6819925,0.1247654
			c-0.588316,0.0273685-1.0727568-0.4570732-1.0453892-1.0453892l0.1247654-2.6819935
			c0.0181551-0.3902721-0.1926394-0.7553787-0.5397034-0.9347935l-2.3850565-1.2329464
			c-0.523181-0.2704563-0.7004986-0.9322147-0.3826389-1.4280281l1.4490461-2.2602921
			c0.2108593-0.3289089,0.2108593-0.7504978,0-1.0794058l-1.4490461-2.2602921
			c-0.3178596-0.4958124-0.140542-1.1575708,0.3826389-1.4280281l2.3850565-1.2329464
			c0.347064-0.1794138,0.5578585-0.5445204,0.5397034-0.9347935l-0.1247654-2.681993
			c-0.0273676-0.588316,0.4570732-1.0727572,1.0453892-1.0453892l2.6819925,0.1247649
			c0.390274,0.0181556,0.7553806-0.1926389,0.9347944-0.5397034l1.2329464-2.3850563
			c0.2704563-0.5231807,0.9322147-0.7004986,1.4280281-0.3826389l2.2602921,1.4490459
			C20.7871876,4.7076964,21.2087765,4.7076964,21.5376854,4.4968367z"/>
		<path opacity="0.5" fill="#4CC6CD" d="M21.4837151,5.6825099l2.0342617-1.3041415
			c0.4462318-0.2860732,1.0418148-0.1264873,1.2852249,0.3443751l1.1096516,2.1465511
			c0.1614723,0.3123579,0.4900684,0.5020728,0.8413143,0.485733l2.4137936-0.1122885
			c0.5294857-0.0246315,0.9654827,0.4113655,0.9408512,0.9408498l-0.1122894,2.4137936
			c-0.0163383,0.3512459,0.1733761,0.679842,0.485733,0.8413143l2.1465511,1.1096525
			c0.4708633,0.2434101,0.6304474,0.838994,0.3443756,1.2852249l-1.304142,2.0342627
			c-0.1897736,0.2960176-0.1897736,0.6754484,0,0.9714651l1.304142,2.0342636
			c0.2860718,0.4462299,0.1264877,1.0418129-0.3443756,1.2852249l-2.1465511,1.1096516
			c-0.3123569,0.1614723-0.5020714,0.4900684-0.485733,0.8413143l0.1122894,2.4137936
			c0.0246315,0.5294838-0.4113655,0.9654808-0.9408512,0.9408493l-2.4137936-0.1122875
			c-0.3512459-0.0163403-0.679842,0.1733742-0.8413143,0.485733l-1.1096516,2.1465511
			c-0.2434101,0.4708614-0.8389931,0.6304474-1.2852249,0.3443737l-2.0342617-1.3041401
			c-0.2960186-0.1897736-0.6754494-0.1897736-0.9714661,0l-2.0342636,1.3041401
			c-0.4462299,0.2860737-1.0418129,0.1264877-1.2852249-0.3443737l-1.1096516-2.1465511
			c-0.1614723-0.3123589-0.4900684-0.5020733-0.8413143-0.485733l-2.4137936,0.1122875
			c-0.5294847,0.0246315-0.9654818-0.4113655-0.9408503-0.9408493l0.1122885-2.4137936
			c0.0163403-0.3512459-0.1733751-0.679842-0.485733-0.8413143l-2.1465511-1.1096516
			c-0.4708624-0.243412-0.6304483-0.838995-0.3443747-1.2852249l1.304141-2.0342636
			c0.1897745-0.2960167,0.1897745-0.6754475,0-0.9714651l-1.304141-2.0342627
			c-0.2860737-0.4462309-0.1264877-1.0418148,0.3443747-1.2852249l2.1465511-1.1096525
			c0.3123579-0.1614723,0.5020733-0.4900684,0.485733-0.8413143L11.8871508,8.183589
			c-0.0246315-0.5294843,0.4113655-0.9654813,0.9408503-0.9408498l2.4137936,0.1122885
			c0.3512459,0.0163398,0.679842-0.1733751,0.8413143-0.485733l1.1096516-2.1465511
			c0.243412-0.4708624,0.838995-0.6304483,1.2852249-0.3443751l2.0342636,1.3041415
			C20.8082657,5.8722839,21.1876965,5.8722839,21.4837151,5.6825099z"/>
		<g>
			<path fill="#FFFFFF" d="M25.4376488,10.6057463c-0.2956219-0.1043043-0.5490551-0.0248861-0.6570854,0.2608843
				c-0.0784416,0.2075024-0.0280704,0.4642782,0.2170105,0.5628757c0.2800732,0.1126766,0.554903,0.0198193,0.6653442-0.2550821
				C25.7441196,10.9723053,25.6680717,10.735323,25.4376488,10.6057463z"/>
			<path fill="none" stroke="#FFFFFF" stroke-linecap="round" stroke-miterlimit="10" d="M26.8884792,12.6544971c0,0,2,3-0.5,7.5"/>
		</g>
		<circle fill="none" stroke="#4CC6CD" stroke-miterlimit="10" cx="20.997982" cy="16.353569" r="8.9280005"/>
	</g>
</g>
</svg>
