<?xml version="1.0" encoding="utf-8"?>
<!-- Generator: Adobe Illustrator 23.0.1, SVG Export Plug-In . SVG Version: 6.00 Build 0)  -->
<svg version="1.1" id="Layer_1" xmlns="http://www.w3.org/2000/svg" xmlns:xlink="http://www.w3.org/1999/xlink" x="0px" y="0px"
	 viewBox="0 0 87.6 130.2" style="enable-background:new 0 0 87.6 130.2;" xml:space="preserve">
<style type="text/css">
	.st0{fill:#00B2BB;}
	.st1{fill:#FCD111;}
	.st2{fill:#FFFFFF;}
</style>
<g>
	<path class="st0" d="M30.1,61.4c-0.3,4.5-3,26.3-27.9,54.6c-0.5,0.5,0,1.3,0.7,1.1l16.1-4.2c0.3-0.1,0.7,0.1,0.8,0.4l7.3,15.5
		c0.2,0.5,0.9,0.6,1.2,0.1c3.2-5.3,16.5-29.7,15.1-64.3c0-0.3-0.2-0.6-0.5-0.7l-12-3.2C30.6,60.7,30.2,61,30.1,61.4z"/>
	<path class="st0" d="M57.6,61.4c0.3,4.5,3,26.3,27.9,54.6c0.5,0.5,0,1.3-0.7,1.1L68.7,113c-0.3-0.1-0.7,0.1-0.8,0.4l-7.3,15.5
		c-0.2,0.5-0.9,0.6-1.2,0.1c-3.2-5.3-16.5-29.7-15.1-64.3c0-0.3,0.2-0.6,0.5-0.7l12-3.2C57.1,60.7,57.6,61,57.6,61.4z"/>
</g>
<path class="st1" d="M45.1,3.5l3.8-2.1c1.1-0.6,2.4-0.4,3.2,0.5L55,5c0.6,0.7,1.5,1,2.5,0.8L61.7,5c1.2-0.2,2.4,0.4,2.9,1.5l1.8,3.9
	c0.4,0.8,1.2,1.4,2.1,1.5l4.3,0.5c1.2,0.1,2.2,1.1,2.3,2.3l0.5,4.3c0.1,0.9,0.7,1.7,1.5,2.1l3.9,1.8c1.1,0.5,1.7,1.7,1.5,2.9
	l-0.8,4.2c-0.2,0.9,0.1,1.8,0.8,2.5l3.2,2.9c0.9,0.8,1.1,2.2,0.5,3.2l-2.1,3.8c-0.4,0.8-0.4,1.8,0,2.6l2.1,3.8
	c0.6,1.1,0.4,2.4-0.5,3.2L82.5,55c-0.7,0.6-1,1.5-0.8,2.5l0.8,4.2c0.2,1.2-0.4,2.4-1.5,2.9l-3.9,1.8c-0.8,0.4-1.4,1.2-1.5,2.1
	l-0.5,4.3C75,74,74,75,72.8,75.1l-4.3,0.5c-0.9,0.1-1.7,0.7-2.1,1.5l-1.8,3.9c-0.5,1.1-1.7,1.7-2.9,1.5l-4.2-0.8
	c-0.9-0.2-1.8,0.1-2.5,0.8l-2.9,3.2c-0.8,0.9-2.2,1.1-3.2,0.5l-3.8-2.1c-0.8-0.4-1.8-0.4-2.6,0l-3.8,2.1c-1.1,0.6-2.4,0.4-3.2-0.5
	l-2.9-3.2c-0.6-0.7-1.6-1-2.5-0.8l-4.2,0.8c-1.2,0.2-2.4-0.4-2.9-1.5l-1.8-3.9c-0.4-0.8-1.2-1.4-2.1-1.5l-4.3-0.5
	c-1.2-0.1-2.2-1.1-2.3-2.3l-0.5-4.3c-0.1-0.9-0.7-1.7-1.5-2.1l-3.9-1.8c-1.1-0.5-1.7-1.7-1.5-2.9l0.9-4.2C6,56.6,5.7,55.7,5,55
	l-3.2-2.9c-0.9-0.8-1.1-2.2-0.5-3.2l2.1-3.8c0.4-0.8,0.4-1.8,0-2.6l-2.1-3.8c-0.6-1.1-0.4-2.4,0.5-3.2L5,32.5c0.7-0.6,1-1.5,0.8-2.5
	L5,25.8c-0.2-1.2,0.4-2.4,1.5-2.9l3.9-1.8c0.8-0.4,1.4-1.2,1.5-2.1l0.5-4.3c0.1-1.2,1.1-2.2,2.3-2.3l4.3-0.5
	c0.9-0.1,1.7-0.7,2.1-1.5l1.8-3.9c0.5-1.1,1.7-1.7,2.9-1.5l4.2,0.8C31,6,31.9,5.7,32.5,5l2.9-3.2c0.8-0.9,2.2-1.1,3.2-0.5l3.8,2.1
	C43.3,3.9,44.3,3.9,45.1,3.5z"/>
<path class="st2" d="M43.7,57.4l13.7,7.2c0.2,0.1,0.5-0.1,0.5-0.4L55.3,49c0-0.1,0-0.2,0.1-0.3l11.1-10.8c0.2-0.2,0.1-0.5-0.2-0.6
	L51,35.1c-0.1,0-0.2-0.1-0.3-0.2l-6.8-13.8c-0.1-0.3-0.5-0.3-0.6,0l-6.8,13.9c0,0.1-0.2,0.2-0.3,0.2l-15.3,2.2
	c-0.3,0-0.4,0.4-0.2,0.6l11.1,10.8c0.1,0.1,0.1,0.2,0.1,0.3l-2.6,15.2c0,0.3,0.2,0.5,0.5,0.4l13.7-7.2
	C43.5,57.3,43.6,57.3,43.7,57.4z"/>
</svg>
